<svg width="86" height="84" viewBox="0 0 86 84" fill="none" xmlns="http://www.w3.org/2000/svg">
<path id="Vector" d="M85.9688 50.3993V77.2811C85.9688 78.8406 85.3926 80.3363 84.367 81.4391C83.3414 82.5419 81.9504 83.1614 80.5 83.1614H5.5C4.0496 83.1614 2.6586 82.5419 1.63301 81.4391C0.607421 80.3363 0.03125 78.8406 0.03125 77.2811V50.3993C0.03125 48.8398 0.607421 47.3441 1.63301 46.2413C2.6586 45.1385 4.0496 44.519 5.5 44.519H24.25C24.8716 44.519 25.4677 44.7845 25.9073 45.2571C26.3468 45.7297 26.5938 46.3707 26.5938 47.0391C26.5938 47.7075 26.3468 48.3485 25.9073 48.8211C25.4677 49.2938 24.8716 49.5593 24.25 49.5593H5.5C5.2928 49.5593 5.09409 49.6478 4.94757 49.8053C4.80106 49.9629 4.71875 50.1765 4.71875 50.3993V77.2811C4.71875 77.5038 4.80106 77.7175 4.94757 77.8751C5.09409 78.0326 5.2928 78.1211 5.5 78.1211H80.5C80.7072 78.1211 80.9059 78.0326 81.0524 77.8751C81.1989 77.7175 81.2812 77.5038 81.2812 77.2811V50.3993C81.2812 50.1765 81.1989 49.9629 81.0524 49.8053C80.9059 49.6478 80.7072 49.5593 80.5 49.5593H61.75C61.1284 49.5593 60.5323 49.2938 60.0927 48.8211C59.6532 48.3485 59.4062 47.7075 59.4062 47.0391C59.4062 46.3707 59.6532 45.7297 60.0927 45.2571C60.5323 44.7845 61.1284 44.519 61.75 44.519H80.5C81.9504 44.519 83.3414 45.1385 84.367 46.2413C85.3926 47.3441 85.9688 48.8398 85.9688 50.3993ZM25.9062 25.2985L40.6562 9.44251V47.0391C40.6562 47.7075 40.9032 48.3485 41.3427 48.8211C41.7823 49.2938 42.3784 49.5593 43 49.5593C43.6216 49.5593 44.2177 49.2938 44.6573 48.8211C45.0968 48.3485 45.3438 47.7075 45.3438 47.0391V9.44251L60.0937 25.2985C60.538 25.7437 61.1257 25.986 61.7329 25.9745C62.3401 25.963 62.9194 25.6985 63.3488 25.2368C63.7782 24.775 64.0242 24.1521 64.0349 23.4992C64.0456 22.8463 63.8203 22.2144 63.4063 21.7367L44.6563 1.57541C44.2168 1.10346 43.6211 0.838379 43 0.838379C42.3789 0.838379 41.7832 1.10346 41.3438 1.57541L22.5938 21.7367C22.1798 22.2144 21.9544 22.8463 21.9651 23.4992C21.9758 24.1521 22.2218 24.775 22.6512 25.2368C23.0806 25.6985 23.6599 25.963 24.2671 25.9745C24.8743 25.986 25.462 25.7437 25.9062 25.2985ZM70.3438 63.8402C70.3438 63.0095 70.1147 62.1974 69.6854 61.5066C69.2562 60.8159 68.6461 60.2776 67.9324 59.9596C67.2186 59.6417 66.4332 59.5586 65.6754 59.7206C64.9177 59.8827 64.2217 60.2827 63.6754 60.8702C63.1291 61.4576 62.757 62.206 62.6063 63.0208C62.4556 63.8355 62.5329 64.6801 62.8286 65.4476C63.1242 66.2151 63.6249 66.8711 64.2673 67.3326C64.9097 67.7941 65.6649 68.0405 66.4375 68.0405C67.4735 68.0405 68.4671 67.5979 69.1996 66.8102C69.9322 66.0225 70.3438 64.9542 70.3438 63.8402Z" fill="#4555BA"/>
</svg>
