<svg width="24" height="24" viewBox="0 0 24 24" fill="none" xmlns="http://www.w3.org/2000/svg">
<g id="ic:round-task-alt">
<path id="Vector" d="M21.29 5.88996L11.29 15.89C11.1975 15.9827 11.0876 16.0562 10.9666 16.1064C10.8457 16.1566 10.716 16.1824 10.585 16.1824C10.454 16.1824 10.3244 16.1566 10.2034 16.1064C10.0824 16.0562 9.97252 15.9827 9.88 15.89L7.05 13.06C6.95742 12.9674 6.88398 12.8575 6.83388 12.7365C6.78377 12.6155 6.75798 12.4859 6.75798 12.355C6.75798 12.224 6.78377 12.0944 6.83388 11.9734C6.88398 11.8525 6.95742 11.7425 7.05 11.65C7.14258 11.5574 7.2525 11.4839 7.37346 11.4338C7.49442 11.3837 7.62407 11.3579 7.755 11.3579C7.88593 11.3579 8.01558 11.3837 8.13655 11.4338C8.25751 11.4839 8.36742 11.5574 8.46 11.65L10.58 13.77L19.87 4.47996C19.9625 4.38725 20.0724 4.31371 20.1934 4.26353C20.3144 4.21334 20.444 4.18751 20.575 4.18751C20.706 4.18751 20.8357 4.21334 20.9566 4.26353C21.0776 4.31371 21.1875 4.38725 21.28 4.47996C21.68 4.86996 21.68 5.49996 21.29 5.88996ZM15.77 2.73996C14.08 2.04996 12.16 1.80996 10.16 2.16996C6.09 2.89996 2.84 6.17996 2.15 10.25C1.87623 11.8006 1.97217 13.394 2.43004 14.9006C2.88791 16.4072 3.69478 17.7845 4.78508 18.9206C5.87538 20.0567 7.21835 20.9195 8.70484 21.4389C10.1913 21.9584 11.7794 22.1197 13.34 21.91C17.3 21.4 20.62 18.45 21.66 14.6C22.06 13.13 22.1 11.71 21.87 10.38C21.74 9.57996 20.75 9.26996 20.17 9.83996C19.94 10.07 19.84 10.41 19.9 10.73C20.12 12.06 20.02 13.48 19.38 14.99C18.22 17.7 15.7 19.69 12.77 19.96C7.67 20.43 3.44 16.11 4.07 10.98C4.5 7.43996 7.35 4.55996 10.88 4.06996C12.61 3.82996 14.25 4.15996 15.65 4.87996C15.886 5.00328 16.1614 5.02779 16.4155 4.94809C16.6696 4.86839 16.8817 4.691 17.005 4.45496C17.1283 4.21892 17.1528 3.94355 17.0731 3.68944C16.9934 3.43533 16.816 3.22328 16.58 3.09996C16.31 2.97996 16.04 2.84996 15.77 2.73996Z" fill="white"/>
</g>
</svg>
