<svg width="31" height="31" viewBox="0 0 31 31" fill="none" xmlns="http://www.w3.org/2000/svg">
<g id="circum:menu-kebab">
<path id="Vector" d="M18.7529 15.741C18.7529 16.5596 18.4277 17.3447 17.8489 17.9235C17.2701 18.5023 16.4851 18.8275 15.6665 18.8275C14.8479 18.8275 14.0629 18.5023 13.4841 17.9235C12.9053 17.3447 12.5801 16.5596 12.5801 15.741C12.5801 14.9225 12.9053 14.1374 13.4841 13.5586C14.0629 12.9798 14.8479 12.6546 15.6665 12.6546C16.4851 12.6546 17.2701 12.9798 17.8489 13.5586C18.4277 14.1374 18.7529 14.9225 18.7529 15.741ZM17.5184 15.741C17.5182 15.2497 17.3229 14.7786 16.9753 14.4313C16.6278 14.084 16.1566 13.889 15.6653 13.8892C15.174 13.8894 14.7028 14.0847 14.3556 14.4322C14.0083 14.7797 13.8132 15.251 13.8134 15.7423C13.8136 16.2336 14.0089 16.7047 14.3564 17.052C14.7039 17.3993 15.1752 17.5943 15.6665 17.5941C16.1578 17.594 16.6289 17.3986 16.9762 17.0511C17.3235 16.7036 17.5185 16.2324 17.5184 15.741ZM18.7529 6.55956C18.7529 7.37813 18.4277 8.16318 17.8489 8.74199C17.2701 9.32081 16.4851 9.64598 15.6665 9.64598C14.8479 9.64598 14.0629 9.32081 13.4841 8.74199C12.9053 8.16318 12.5801 7.37813 12.5801 6.55956C12.5801 5.741 12.9053 4.95595 13.4841 4.37714C14.0629 3.79832 14.8479 3.47314 15.6665 3.47314C16.4851 3.47314 17.2701 3.79832 17.8489 4.37714C18.4277 4.95595 18.7529 5.741 18.7529 6.55956ZM17.5184 6.55956C17.5182 6.06826 17.3229 5.59714 16.9753 5.24985C16.6278 4.90256 16.1566 4.70755 15.6653 4.70771C15.174 4.70788 14.7028 4.9032 14.3556 5.25072C14.0083 5.59825 13.8132 6.06949 13.8134 6.5608C13.8136 7.0521 14.0089 7.52322 14.3564 7.87051C14.7039 8.2178 15.1752 8.41281 15.6665 8.41265C16.1578 8.41249 16.6289 8.21716 16.9762 7.86964C17.3235 7.52212 17.5185 7.05087 17.5184 6.55956ZM18.7529 24.9225C18.7529 25.7411 18.4277 26.5261 17.8489 27.105C17.2701 27.6838 16.4851 28.0089 15.6665 28.0089C14.8479 28.0089 14.0629 27.6838 13.4841 27.105C12.9053 26.5261 12.5801 25.7411 12.5801 24.9225C12.5801 24.104 12.9053 23.3189 13.4841 22.7401C14.0629 22.1613 14.8479 21.8361 15.6665 21.8361C16.4851 21.8361 17.2701 22.1613 17.8489 22.7401C18.4277 23.3189 18.7529 24.104 18.7529 24.9225ZM17.5184 24.9225C17.5182 24.4312 17.3229 23.9601 16.9753 23.6128C16.6278 23.2655 16.1566 23.0705 15.6653 23.0707C15.174 23.0708 14.7028 23.2662 14.3556 23.6137C14.0083 23.9612 13.8132 24.4325 13.8134 24.9238C13.8136 25.4151 14.0089 25.8862 14.3564 26.2335C14.7039 26.5808 15.1752 26.7758 15.6665 26.7756C16.1578 26.7754 16.6289 26.5801 16.9762 26.2326C17.3235 25.8851 17.5185 25.4138 17.5184 24.9225Z" fill="black"/>
</g>
</svg>
