<svg width="30" height="31" viewBox="0 0 30 31" fill="none" xmlns="http://www.w3.org/2000/svg">
<g id="material-symbols-light:attach-file">
<path id="Vector" d="M14.2344 27.6545C12.5159 27.6545 11.0496 27.0471 9.83564 25.8323C8.62164 24.6183 8.01465 23.152 8.01465 21.4335V7.71007C8.01465 6.46974 8.45621 5.40801 9.33934 4.52489C10.2225 3.64176 11.2842 3.2002 12.5245 3.2002C13.7657 3.2002 14.8274 3.64176 15.7097 4.52489C16.5937 5.40801 17.0356 6.46974 17.0356 7.71007V20.0557C17.0356 20.8401 16.7649 21.5035 16.2233 22.0459C15.6817 22.5874 15.0184 22.8582 14.2332 22.8582C13.4488 22.8582 12.7863 22.5874 12.2455 22.0459C11.7039 21.5035 11.4332 20.8401 11.4332 20.0557V7.71007H12.5245V20.0557C12.5245 20.5405 12.6883 20.9467 13.0159 21.2743C13.3443 21.6018 13.7505 21.7656 14.2344 21.7656C14.7184 21.7656 15.1245 21.6018 15.4529 21.2743C15.7805 20.9467 15.9443 20.5405 15.9443 20.0557V7.71007C15.9443 6.75287 15.6134 5.94382 14.9517 5.28291C14.29 4.62201 13.4805 4.29155 12.5233 4.29155C11.5653 4.29155 10.7562 4.62201 10.0961 5.28291C9.43605 5.94382 9.10601 6.75287 9.10601 7.71007V21.4335C9.10601 22.8549 9.6056 24.0648 10.6048 25.0632C11.6031 26.0623 12.813 26.5619 14.2344 26.5619C15.6558 26.5619 16.8657 26.0623 17.864 25.0632C18.8632 24.0648 19.3628 22.8549 19.3628 21.4335V7.71007H20.4542V21.4335C20.4542 23.152 19.8472 24.6183 18.6332 25.8323C17.4192 27.0463 15.9529 27.6537 14.2344 27.6545Z" fill="#3F3F3F"/>
</g>
</svg>
