<svg width="25" height="25" viewBox="0 0 25 25" fill="none" xmlns="http://www.w3.org/2000/svg">
<g id="ep:office-building">
<path id="Vector" d="M4.6875 3.125V20.3125H14.0625V3.125H4.6875ZM3.90625 1.5625H14.8438C15.051 1.5625 15.2497 1.64481 15.3962 1.79132C15.5427 1.93784 15.625 2.13655 15.625 2.34375V21.0938C15.625 21.301 15.5427 21.4997 15.3962 21.6462C15.2497 21.7927 15.051 21.875 14.8438 21.875H3.90625C3.69905 21.875 3.50034 21.7927 3.35382 21.6462C3.20731 21.4997 3.125 21.301 3.125 21.0938V2.34375C3.125 2.13655 3.20731 1.93784 3.35382 1.79132C3.50034 1.64481 3.69905 1.5625 3.90625 1.5625Z" fill="#4250AC"/>
<path id="Vector_2" d="M6.25 6.25H12.5V7.8125H6.25V6.25ZM6.25 10.9375H12.5V12.5H6.25V10.9375ZM6.25 15.625H12.5V17.1875H6.25V15.625ZM15.625 12.5H18.75V14.0625H15.625V12.5ZM15.625 15.625H18.75V17.1875H15.625V15.625ZM1.5625 20.3125H23.4375V21.875H1.5625V20.3125Z" fill="#4250AC"/>
<path id="Vector_3" d="M15.625 9.375V20.3125H20.3125V9.375H15.625ZM14.8438 7.8125H21.0938C21.301 7.8125 21.4997 7.89481 21.6462 8.04132C21.7927 8.18784 21.875 8.38655 21.875 8.59375V21.0938C21.875 21.301 21.7927 21.4997 21.6462 21.6462C21.4997 21.7927 21.301 21.875 21.0938 21.875H14.8438C14.6365 21.875 14.4378 21.7927 14.2913 21.6462C14.1448 21.4997 14.0625 21.301 14.0625 21.0938V8.59375C14.0625 8.38655 14.1448 8.18784 14.2913 8.04132C14.4378 7.89481 14.6365 7.8125 14.8438 7.8125Z" fill="#4250AC"/>
</g>
</svg>
