<svg width="30" height="30" viewBox="0 0 30 30" fill="none" xmlns="http://www.w3.org/2000/svg">
<g id="material-symbols-light:task-outline">
<path id="Vector" d="M13.6875 21.0812L19.885 14.885L18.985 13.985L13.68 19.2912L11.0075 16.6175L10.115 17.51L13.6875 21.0812ZM8.26875 26.25C7.69375 26.25 7.21375 26.0575 6.82875 25.6725C6.44292 25.2867 6.25 24.8062 6.25 24.2313V5.76875C6.25 5.19375 6.44292 4.71375 6.82875 4.32875C7.21375 3.94292 7.69375 3.75 8.26875 3.75H18.125L23.75 9.375V24.2313C23.75 24.8062 23.5575 25.2863 23.1725 25.6713C22.7867 26.0571 22.3062 26.25 21.7313 26.25H8.26875ZM17.5 10V5H8.26875C8.07708 5 7.90083 5.08 7.74 5.24C7.58 5.40083 7.5 5.57708 7.5 5.76875V24.2313C7.5 24.4229 7.58 24.5992 7.74 24.76C7.90083 24.92 8.07708 25 8.26875 25H21.7313C21.9229 25 22.0992 24.92 22.26 24.76C22.42 24.5992 22.5 24.4229 22.5 24.2313V10H17.5Z" fill="#4250AC"/>
</g>
</svg>
