<svg width="66" height="66" viewBox="0 0 66 66" fill="none" xmlns="http://www.w3.org/2000/svg">
<g id="Medal template/Bronze">
<path id="Ellipse 1801" d="M63.5718 32.7717C63.5718 49.5195 49.9951 63.0962 33.2473 63.0962C16.4996 63.0962 2.92285 49.5195 2.92285 32.7717C2.92285 16.024 16.4996 2.44727 33.2473 2.44727C49.9951 2.44727 63.5718 16.024 63.5718 32.7717Z" fill="#B57234"/>
<path id="Ellipse 1801 (Stroke)" fill-rule="evenodd" clip-rule="evenodd" d="M65.8182 32.7719C65.8182 50.7602 51.2358 65.3427 33.2475 65.3427C15.2592 65.3427 0.676758 50.7602 0.676758 32.7719C0.676758 14.7836 15.2592 0.201172 33.2475 0.201172C51.2358 0.201172 65.8182 14.7836 65.8182 32.7719ZM33.2475 63.0964C49.9953 63.0964 63.572 49.5197 63.572 32.7719C63.572 16.0242 49.9953 2.44743 33.2475 2.44743C16.4998 2.44743 2.92302 16.0242 2.92302 32.7719C2.92302 49.5197 16.4998 63.0964 33.2475 63.0964Z" fill="#C38144"/>
<path id="Ellipse 1805 (Stroke)" fill-rule="evenodd" clip-rule="evenodd" d="M5.16974 33.8945C4.54945 33.8945 4.04661 33.3917 4.04661 32.7714C4.04661 16.6439 17.1205 3.57005 33.248 3.57005C33.8683 3.57005 34.3711 4.07289 34.3711 4.69318C34.3711 5.31346 33.8683 5.81631 33.248 5.81631C18.3611 5.8163 6.29287 17.8845 6.29287 32.7714C6.29287 33.3917 5.79003 33.8945 5.16974 33.8945Z" fill="#F0B57F"/>
<path id="Ellipse 1804 (Stroke)" fill-rule="evenodd" clip-rule="evenodd" d="M61.3254 31.6484C61.9457 31.6484 62.4485 32.1513 62.4485 32.7716C62.4485 48.899 49.3746 61.9729 33.2472 61.9729C32.6269 61.9729 32.124 61.4701 32.124 60.8498C32.124 60.2295 32.6269 59.7267 33.2472 59.7267C48.134 59.7267 60.2022 47.6585 60.2022 32.7716C60.2022 32.1513 60.7051 31.6484 61.3254 31.6484Z" fill="#C87D38"/>
<path id="Ellipse 1802" d="M55.7093 32.7712C55.7093 45.1769 45.6525 55.2338 33.2468 55.2338C20.841 55.2338 10.7842 45.1769 10.7842 32.7712C10.7842 20.3654 20.841 10.3086 33.2468 10.3086C45.6525 10.3086 55.7093 20.3654 55.7093 32.7712Z" fill="#F7BA82"/>
<path id="Ellipse 1802 (Stroke)" fill-rule="evenodd" clip-rule="evenodd" d="M57.9567 32.7713C57.9567 46.4177 46.8942 57.4802 33.2479 57.4802C19.6016 57.4802 8.53906 46.4177 8.53906 32.7713C8.53906 19.125 19.6016 8.0625 33.2479 8.0625C46.8942 8.0625 57.9567 19.125 57.9567 32.7713ZM33.2479 55.2339C45.6536 55.2339 55.7105 45.1771 55.7105 32.7713C55.7105 20.3656 45.6536 10.3088 33.2479 10.3088C20.8422 10.3088 10.7853 20.3656 10.7853 32.7713C10.7853 45.1771 20.8422 55.2339 33.2479 55.2339Z" fill="#C38144"/>
<path id="Ellipse 1803 (Stroke)" fill-rule="evenodd" clip-rule="evenodd" d="M33.2475 51.8651C43.7923 51.8651 52.3407 43.3168 52.3407 32.7719C52.3407 32.1516 52.8435 31.6487 53.4638 31.6487C54.0841 31.6487 54.5869 32.1516 54.5869 32.7719C54.5869 44.5573 45.0329 54.1113 33.2475 54.1113C32.6272 54.1113 32.1243 53.6085 32.1243 52.9882C32.1243 52.3679 32.6272 51.8651 33.2475 51.8651Z" fill="#E6A66C"/>
<path id="Ellipse 1800 (Stroke)" fill-rule="evenodd" clip-rule="evenodd" d="M33.2467 13.6799C22.7018 13.6799 14.1535 22.2282 14.1535 32.773C14.1535 33.3933 13.6506 33.8962 13.0304 33.8962C12.4101 33.8962 11.9072 33.3933 11.9072 32.773C11.9072 20.9876 21.4612 11.4336 33.2467 11.4336C33.867 11.4336 34.3698 11.9364 34.3698 12.5567C34.3698 13.177 33.867 13.6799 33.2467 13.6799Z" fill="#FFD5AE"/>
</g>
</svg>
