<svg width="68" height="68" viewBox="0 0 68 68" fill="none" xmlns="http://www.w3.org/2000/svg">
<g id="Group 1170">
<path id="Ellipse 1801" d="M65.068 33.8079C65.068 50.8906 51.2197 64.7389 34.137 64.7389C17.0543 64.7389 3.20605 50.8906 3.20605 33.8079C3.20605 16.7252 17.0543 2.87695 34.137 2.87695C51.2197 2.87695 65.068 16.7252 65.068 33.8079Z" fill="#FFBB0D"/>
<path id="Ellipse 1801 (Stroke)" fill-rule="evenodd" clip-rule="evenodd" d="M67.3593 33.8081C67.3593 52.1562 52.4853 67.0302 34.1372 67.0302C15.7891 67.0302 0.915039 52.1562 0.915039 33.8081C0.915039 15.46 15.7891 0.585938 34.1372 0.585938C52.4853 0.585938 67.3593 15.46 67.3593 33.8081ZM34.1372 64.7391C51.2199 64.7391 65.0682 50.8908 65.0682 33.8081C65.0682 16.7254 51.2199 2.87712 34.1372 2.87712C17.0545 2.87712 3.20622 16.7254 3.20622 33.8081C3.20622 50.8908 17.0545 64.7391 34.1372 64.7391Z" fill="#E89B05"/>
<path id="Ellipse 1805 (Stroke)" fill-rule="evenodd" clip-rule="evenodd" d="M5.49782 34.9551C4.86513 34.9551 4.35223 34.4422 4.35223 33.8095C4.35223 17.3595 17.6876 4.02411 34.1376 4.02411C34.7703 4.02411 35.2832 4.53701 35.2832 5.1697C35.2832 5.80239 34.7703 6.31529 34.1376 6.31529C18.953 6.31529 6.64342 18.6249 6.64342 33.8095C6.64342 34.4422 6.13052 34.9551 5.49782 34.9551Z" fill="#E8AA0A"/>
<path id="Ellipse 1804 (Stroke)" fill-rule="evenodd" clip-rule="evenodd" d="M62.7776 32.6621C63.4103 32.6621 63.9232 33.175 63.9232 33.8077C63.9232 50.2577 50.5878 63.5931 34.1378 63.5931C33.5051 63.5931 32.9922 63.0802 32.9922 62.4475C32.9922 61.8148 33.5051 61.3019 34.1378 61.3019C49.3224 61.3019 61.632 48.9923 61.632 33.8077C61.632 33.175 62.1449 32.6621 62.7776 32.6621Z" fill="#E8AA0A"/>
<path id="Ellipse 1802" d="M57.0492 33.8083C57.0492 46.4622 46.7913 56.7201 34.1374 56.7201C21.4836 56.7201 11.2256 46.4622 11.2256 33.8083C11.2256 21.1545 21.4836 10.8965 34.1374 10.8965C46.7913 10.8965 57.0492 21.1545 57.0492 33.8083Z" fill="#FFDD28"/>
<path id="Ellipse 1802 (Stroke)" fill-rule="evenodd" clip-rule="evenodd" d="M59.3396 33.8085C59.3396 47.7277 48.0558 59.0115 34.1366 59.0115C20.2174 59.0115 8.93359 47.7277 8.93359 33.8085C8.93359 19.8892 20.2174 8.60547 34.1366 8.60547C48.0558 8.60547 59.3396 19.8892 59.3396 33.8085ZM34.1366 56.7203C46.7905 56.7203 57.0484 46.4623 57.0484 33.8085C57.0484 21.1546 46.7905 10.8967 34.1366 10.8967C21.4828 10.8967 11.2248 21.1546 11.2248 33.8085C11.2248 46.4623 21.4828 56.7203 34.1366 56.7203Z" fill="#E89B05"/>
<path id="Ellipse 1803 (Stroke)" fill-rule="evenodd" clip-rule="evenodd" d="M34.1371 53.283C44.8929 53.283 53.6121 44.5638 53.6121 33.808C53.6121 33.1753 54.125 32.6624 54.7577 32.6624C55.3904 32.6624 55.9033 33.1753 55.9033 33.808C55.9033 45.8291 46.1582 55.5742 34.1371 55.5742C33.5044 55.5742 32.9915 55.0613 32.9915 54.4286C32.9915 53.7959 33.5044 53.283 34.1371 53.283Z" fill="#ECC704"/>
<path id="Ellipse 1800 (Stroke)" fill-rule="evenodd" clip-rule="evenodd" d="M34.1373 14.3322C23.3816 14.3322 14.6623 23.0515 14.6623 33.8073C14.6623 34.4399 14.1494 34.9528 13.5167 34.9528C12.884 34.9528 12.3711 34.4399 12.3711 33.8073C12.3711 21.7861 22.1162 12.041 34.1373 12.041C34.77 12.041 35.2829 12.5539 35.2829 13.1866C35.2829 13.8193 34.77 14.3322 34.1373 14.3322Z" fill="#FFEF9C"/>
</g>
</svg>
