<svg width="82" height="52" viewBox="0 0 82 52" fill="none" xmlns="http://www.w3.org/2000/svg">
<g id="Group 1162">
<path id="Rectangle 2653" d="M29.2084 4.20222C28.7943 3.51211 28.0485 3.08984 27.2437 3.08984H5.09342C3.3125 3.08984 2.21247 5.0327 3.12875 6.55983L27.8735 47.8011C28.2876 48.4912 29.0334 48.9135 29.8382 48.9135H51.9885C53.7694 48.9135 54.8694 46.9706 53.9532 45.4435L29.2084 4.20222Z" fill="#D72148"/>
<path id="Rectangle 2653 (Stroke)" fill-rule="evenodd" clip-rule="evenodd" d="M27.2439 0.798828H5.09361C1.53177 0.798828 -0.668285 4.68454 1.16427 7.7388L25.909 48.9801C26.7372 50.3603 28.2288 51.2049 29.8384 51.2049H51.9887C55.5505 51.2049 57.7506 47.3191 55.918 44.2649L31.1733 3.02359C30.3451 1.64336 28.8535 0.798828 27.2439 0.798828ZM27.2439 3.09001C28.0487 3.09001 28.7945 3.51227 29.2086 4.20239L53.9534 45.4437C54.8696 46.9708 53.7696 48.9137 51.9887 48.9137H29.8384C29.0336 48.9137 28.2878 48.4914 27.8737 47.8013L3.12894 6.56C2.21267 5.03287 3.31269 3.09001 5.09361 3.09001H27.2439Z" fill="#D72148"/>
<path id="Rectangle 2652" d="M53.0768 4.20222C53.4908 3.51211 54.2366 3.08984 55.0415 3.08984H77.1917C78.9727 3.08984 80.0727 5.0327 79.1564 6.55983L54.4116 47.8011C53.9976 48.4912 53.2518 48.9135 52.447 48.9135H30.2967C28.5158 48.9135 27.4157 46.9706 28.332 45.4435L53.0768 4.20222Z" fill="#D72148"/>
<path id="Rectangle 2652 (Stroke)" fill-rule="evenodd" clip-rule="evenodd" d="M55.0403 0.798828H77.1906C80.7524 0.798828 82.9525 4.68454 81.1199 7.7388L56.3751 48.9801C55.547 50.3603 54.0554 51.2049 52.4458 51.2049H30.2955C26.7336 51.2049 24.5336 47.3191 26.3662 44.2649L51.1109 3.02359C51.9391 1.64336 53.4307 0.798828 55.0403 0.798828ZM55.0403 3.09001C54.2355 3.09001 53.4897 3.51227 53.0756 4.20239L28.3308 45.4437C27.4145 46.9708 28.5146 48.9137 30.2955 48.9137H52.4458C53.2506 48.9137 53.9964 48.4914 54.4105 47.8013L79.1552 6.56C80.0715 5.03287 78.9715 3.09001 77.1906 3.09001H55.0403Z" fill="#D72148"/>
</g>
</svg>
