<svg width="67" height="67" viewBox="0 0 67 67" fill="none" xmlns="http://www.w3.org/2000/svg">
<g id="Medal template/Silver">
<path id="Ellipse 1801" d="M64.2984 33.532C64.2984 50.4473 50.5859 64.1598 33.6707 64.1598C16.7555 64.1598 3.04297 50.4473 3.04297 33.532C3.04297 16.6168 16.7555 2.9043 33.6707 2.9043C50.5859 2.9043 64.2984 16.6168 64.2984 33.532Z" fill="#BCCCD2"/>
<path id="Ellipse 1801 (Stroke)" fill-rule="evenodd" clip-rule="evenodd" d="M66.5673 33.5312C66.5673 51.6994 51.8391 66.4277 33.6709 66.4277C15.5027 66.4277 0.774414 51.6994 0.774414 33.5312C0.774414 15.363 15.5027 0.634766 33.6709 0.634766C51.8391 0.634766 66.5673 15.363 66.5673 33.5312ZM33.6709 64.1589C50.5861 64.1589 64.2986 50.4464 64.2986 33.5312C64.2986 16.616 50.5861 2.90349 33.6709 2.90349C16.7556 2.90349 3.04313 16.616 3.04313 33.5312C3.04313 50.4464 16.7556 64.1589 33.6709 64.1589Z" fill="#81A5B0"/>
<path id="Ellipse 1805 (Stroke)" fill-rule="evenodd" clip-rule="evenodd" d="M5.31132 34.668C4.68483 34.668 4.17696 34.1601 4.17696 33.5336C4.17696 17.2449 17.3816 4.04024 33.6703 4.04024C34.2968 4.04024 34.8047 4.54811 34.8047 5.1746C34.8047 5.80109 34.2968 6.30896 33.6703 6.30896C18.6346 6.30896 6.44568 18.4978 6.44568 33.5336C6.44568 34.1601 5.93781 34.668 5.31132 34.668Z" fill="#D0DEE3"/>
<path id="Ellipse 1804 (Stroke)" fill-rule="evenodd" clip-rule="evenodd" d="M62.0305 32.3965C62.657 32.3965 63.1648 32.9044 63.1648 33.5308C63.1648 49.8196 49.9602 63.0242 33.6715 63.0242C33.045 63.0242 32.5371 62.5163 32.5371 61.8899C32.5371 61.2634 33.045 60.7555 33.6715 60.7555C48.7072 60.7555 60.8961 48.5666 60.8961 33.5308C60.8961 32.9044 61.404 32.3965 62.0305 32.3965Z" fill="#A2B9C1"/>
<path id="Ellipse 1802" d="M56.3578 33.5329C56.3578 46.0627 46.2004 56.2201 33.6706 56.2201C21.1408 56.2201 10.9834 46.0627 10.9834 33.5329C10.9834 21.0031 21.1408 10.8457 33.6706 10.8457C46.2004 10.8457 56.3578 21.0031 56.3578 33.5329Z" fill="#C7D4D8"/>
<path id="Ellipse 1802 (Stroke)" fill-rule="evenodd" clip-rule="evenodd" d="M58.6267 33.5301C58.6267 47.3129 47.4536 58.4861 33.6708 58.4861C19.888 58.4861 8.71484 47.3129 8.71484 33.5301C8.71484 19.7474 19.888 8.57422 33.6708 8.57422C47.4536 8.57422 58.6267 19.7474 58.6267 33.5301ZM33.6708 56.2174C46.2006 56.2174 56.358 46.0599 56.358 33.5301C56.358 21.0003 46.2006 10.8429 33.6708 10.8429C21.141 10.8429 10.9836 21.0003 10.9836 33.5301C10.9836 46.0599 21.141 56.2174 33.6708 56.2174Z" fill="#81A5B0"/>
<path id="Ellipse 1803 (Stroke)" fill-rule="evenodd" clip-rule="evenodd" d="M33.6698 52.8153C44.3201 52.8153 52.9539 44.1815 52.9539 33.5311C52.9539 32.9046 53.4618 32.3968 54.0883 32.3968C54.7148 32.3968 55.2227 32.9046 55.2227 33.5311C55.2227 45.4344 45.5731 55.084 33.6698 55.084C33.0433 55.084 32.5354 54.5761 32.5354 53.9496C32.5354 53.3231 33.0433 52.8153 33.6698 52.8153Z" fill="#B5C3C8"/>
<path id="Ellipse 1800 (Stroke)" fill-rule="evenodd" clip-rule="evenodd" d="M33.67 14.2472C23.0197 14.2472 14.3859 22.881 14.3859 33.5314C14.3859 34.1579 13.878 34.6657 13.2515 34.6657C12.6251 34.6657 12.1172 34.1579 12.1172 33.5314C12.1172 21.6281 21.7667 11.9785 33.67 11.9785C34.2965 11.9785 34.8044 12.4864 34.8044 13.1129C34.8044 13.7394 34.2965 14.2472 33.67 14.2472Z" fill="#D9EAEF"/>
</g>
</svg>
