<svg width="100" height="100" viewBox="0 0 100 100" fill="none" xmlns="http://www.w3.org/2000/svg">
<g id="fluent-emoji:eight-oclock">
<g id="Group">
<path id="Vector" d="M93.75 50.0352C93.75 74.1977 74.1625 93.7852 50 93.7852C25.8375 93.7852 6.25 74.1977 6.25 50.0352C6.25 25.8727 25.8375 6.28516 50 6.28516C74.1625 6.28516 93.75 25.8727 93.75 50.0352Z" fill="url(#paint0_radial_706_5568)"/>
<g id="Group_2" filter="url(#filter0_f_706_5568)">
<path id="Vector_2" d="M48.1376 24.3223C48.9664 24.3223 49.7613 24.6515 50.3473 25.2376C50.9334 25.8236 51.2626 26.6185 51.2626 27.4473V47.0535C52.6906 47.8773 53.7329 49.2347 54.1602 50.827C54.5874 52.4193 54.3646 54.1161 53.5407 55.5441C52.7169 56.9722 51.3596 58.0144 49.7672 58.4417C48.1749 58.8689 46.4781 58.6461 45.0501 57.8223L33.5501 64.4629C32.832 64.8773 31.9786 64.9894 31.1778 64.7747C30.3769 64.5599 29.6942 64.0357 29.2798 63.3176C28.8654 62.5994 28.7533 61.7461 28.9681 60.9452C29.1828 60.1444 29.707 59.4617 30.4251 59.0473L41.9282 52.4066C41.9376 50.1254 43.1751 48.1348 45.0126 47.0629V27.4473C45.0126 26.6185 45.3419 25.8236 45.9279 25.2376C46.514 24.6515 47.3088 24.3223 48.1376 24.3223Z" fill="#C6C3C9"/>
</g>
<g id="Group_3" filter="url(#filter1_i_706_5568)">
<path id="Vector_3" fill-rule="evenodd" clip-rule="evenodd" d="M50.0908 21.9609C50.9196 21.9609 51.7145 22.2902 52.3005 22.8762C52.8866 23.4623 53.2158 24.2571 53.2158 25.0859V50.0703C53.2158 50.8991 52.8866 51.694 52.3005 52.28C51.7145 52.8661 50.9196 53.1953 50.0908 53.1953C49.262 53.1953 48.4672 52.8661 47.8811 52.28C47.2951 51.694 46.9658 50.8991 46.9658 50.0703V25.0859C46.9658 24.2571 47.2951 23.4623 47.8811 22.8762C48.4672 22.2902 49.262 21.9609 50.0908 21.9609Z" fill="url(#paint1_linear_706_5568)"/>
</g>
<path id="Vector_4" fill-rule="evenodd" clip-rule="evenodd" d="M31.2341 60.9565C30.8197 60.2387 30.7074 59.3858 30.9219 58.5852C31.1364 57.7847 31.6601 57.1021 32.3778 56.6877L48.5278 47.3627C48.8834 47.1543 49.2766 47.0182 49.685 46.9624C50.0933 46.9066 50.5086 46.9321 50.9071 47.0374C51.3055 47.1427 51.6792 47.3259 52.0065 47.5762C52.3339 47.8265 52.6085 48.1392 52.8146 48.4961C53.0207 48.853 53.1541 49.2471 53.2072 49.6558C53.2604 50.0645 53.2321 50.4796 53.1241 50.8774C53.0161 51.2751 52.8306 51.6475 52.5781 51.9733C52.3256 52.299 52.0111 52.5715 51.6528 52.7752L35.5028 62.1002C34.7851 62.5146 33.9321 62.6269 33.1316 62.4124C32.3311 62.1979 31.6485 61.6742 31.2341 60.9565Z" fill="url(#paint2_linear_706_5568)"/>
<path id="Vector_5" fill-rule="evenodd" clip-rule="evenodd" d="M31.2341 60.9565C30.8197 60.2387 30.7074 59.3858 30.9219 58.5852C31.1364 57.7847 31.6601 57.1021 32.3778 56.6877L48.5278 47.3627C48.8834 47.1543 49.2766 47.0182 49.685 46.9624C50.0933 46.9066 50.5086 46.9321 50.9071 47.0374C51.3055 47.1427 51.6792 47.3259 52.0065 47.5762C52.3339 47.8265 52.6085 48.1392 52.8146 48.4961C53.0207 48.853 53.1541 49.2471 53.2072 49.6558C53.2604 50.0645 53.2321 50.4796 53.1241 50.8774C53.0161 51.2751 52.8306 51.6475 52.5781 51.9733C52.3256 52.299 52.0111 52.5715 51.6528 52.7752L35.5028 62.1002C34.7851 62.5146 33.9321 62.6269 33.1316 62.4124C32.3311 62.1979 31.6485 61.6742 31.2341 60.9565Z" fill="url(#paint3_linear_706_5568)"/>
<path id="Vector_6" fill-rule="evenodd" clip-rule="evenodd" d="M31.2341 60.9565C30.8197 60.2387 30.7074 59.3858 30.9219 58.5852C31.1364 57.7847 31.6601 57.1021 32.3778 56.6877L48.5278 47.3627C48.8834 47.1543 49.2766 47.0182 49.685 46.9624C50.0933 46.9066 50.5086 46.9321 50.9071 47.0374C51.3055 47.1427 51.6792 47.3259 52.0065 47.5762C52.3339 47.8265 52.6085 48.1392 52.8146 48.4961C53.0207 48.853 53.1541 49.2471 53.2072 49.6558C53.2604 50.0645 53.2321 50.4796 53.1241 50.8774C53.0161 51.2751 52.8306 51.6475 52.5781 51.9733C52.3256 52.299 52.0111 52.5715 51.6528 52.7752L35.5028 62.1002C34.7851 62.5146 33.9321 62.6269 33.1316 62.4124C32.3311 62.1979 31.6485 61.6742 31.2341 60.9565Z" fill="url(#paint4_radial_706_5568)"/>
<path id="Vector_7" fill-rule="evenodd" clip-rule="evenodd" d="M31.2341 60.9565C30.8197 60.2387 30.7074 59.3858 30.9219 58.5852C31.1364 57.7847 31.6601 57.1021 32.3778 56.6877L48.5278 47.3627C48.8834 47.1543 49.2766 47.0182 49.685 46.9624C50.0933 46.9066 50.5086 46.9321 50.9071 47.0374C51.3055 47.1427 51.6792 47.3259 52.0065 47.5762C52.3339 47.8265 52.6085 48.1392 52.8146 48.4961C53.0207 48.853 53.1541 49.2471 53.2072 49.6558C53.2604 50.0645 53.2321 50.4796 53.1241 50.8774C53.0161 51.2751 52.8306 51.6475 52.5781 51.9733C52.3256 52.299 52.0111 52.5715 51.6528 52.7752L35.5028 62.1002C34.7851 62.5146 33.9321 62.6269 33.1316 62.4124C32.3311 62.1979 31.6485 61.6742 31.2341 60.9565Z" fill="url(#paint5_linear_706_5568)"/>
<g id="Group_4" filter="url(#filter2_ii_706_5568)">
<path id="Vector_8" fill-rule="evenodd" clip-rule="evenodd" d="M50 84.4102C68.9844 84.4102 84.375 69.0195 84.375 50.0352C84.375 31.0508 68.9844 15.6602 50 15.6602C31.0156 15.6602 15.625 31.0508 15.625 50.0352C15.625 69.0195 31.0156 84.4102 50 84.4102ZM50 93.7852C74.1625 93.7852 93.75 74.1977 93.75 50.0352C93.75 25.8727 74.1625 6.28516 50 6.28516C25.8375 6.28516 6.25 25.8727 6.25 50.0352C6.25 74.1977 25.8375 93.7852 50 93.7852Z" fill="url(#paint6_linear_706_5568)"/>
</g>
<path id="Vector_9" d="M56.3121 50.0691C56.3121 51.7176 55.6572 53.2986 54.4916 54.4643C53.3259 55.6299 51.745 56.2848 50.0965 56.2848C48.448 56.2848 46.867 55.6299 45.7014 54.4643C44.5357 53.2986 43.8809 51.7176 43.8809 50.0691C43.8809 48.4207 44.5357 46.8397 45.7014 45.674C46.867 44.5084 48.448 43.8535 50.0965 43.8535C51.745 43.8535 53.3259 44.5084 54.4916 45.674C55.6572 46.8397 56.3121 48.4207 56.3121 50.0691Z" fill="url(#paint7_radial_706_5568)"/>
<path id="Vector_10" d="M56.3121 50.0691C56.3121 51.7176 55.6572 53.2986 54.4916 54.4643C53.3259 55.6299 51.745 56.2848 50.0965 56.2848C48.448 56.2848 46.867 55.6299 45.7014 54.4643C44.5357 53.2986 43.8809 51.7176 43.8809 50.0691C43.8809 48.4207 44.5357 46.8397 45.7014 45.674C46.867 44.5084 48.448 43.8535 50.0965 43.8535C51.745 43.8535 53.3259 44.5084 54.4916 45.674C55.6572 46.8397 56.3121 48.4207 56.3121 50.0691Z" fill="url(#paint8_radial_706_5568)"/>
</g>
</g>
<defs>
<filter id="filter0_f_706_5568" x="27.3613" y="22.8223" width="28.5107" height="43.5586" filterUnits="userSpaceOnUse" color-interpolation-filters="sRGB">
<feFlood flood-opacity="0" result="BackgroundImageFix"/>
<feBlend mode="normal" in="SourceGraphic" in2="BackgroundImageFix" result="shape"/>
<feGaussianBlur stdDeviation="0.75" result="effect1_foregroundBlur_706_5568"/>
</filter>
<filter id="filter1_i_706_5568" x="46.9658" y="21.9609" width="6.85" height="31.2344" filterUnits="userSpaceOnUse" color-interpolation-filters="sRGB">
<feFlood flood-opacity="0" result="BackgroundImageFix"/>
<feBlend mode="normal" in="SourceGraphic" in2="BackgroundImageFix" result="shape"/>
<feColorMatrix in="SourceAlpha" type="matrix" values="0 0 0 0 0 0 0 0 0 0 0 0 0 0 0 0 0 0 127 0" result="hardAlpha"/>
<feOffset dx="0.6"/>
<feGaussianBlur stdDeviation="0.425"/>
<feComposite in2="hardAlpha" operator="arithmetic" k2="-1" k3="1"/>
<feColorMatrix type="matrix" values="0 0 0 0 0.635294 0 0 0 0 0.227451 0 0 0 0 0.403922 0 0 0 1 0"/>
<feBlend mode="normal" in2="shape" result="effect1_innerShadow_706_5568"/>
</filter>
<filter id="filter2_ii_706_5568" x="5.85" y="5.88516" width="88.3" height="88.3" filterUnits="userSpaceOnUse" color-interpolation-filters="sRGB">
<feFlood flood-opacity="0" result="BackgroundImageFix"/>
<feBlend mode="normal" in="SourceGraphic" in2="BackgroundImageFix" result="shape"/>
<feColorMatrix in="SourceAlpha" type="matrix" values="0 0 0 0 0 0 0 0 0 0 0 0 0 0 0 0 0 0 127 0" result="hardAlpha"/>
<feOffset dx="0.4" dy="-0.4"/>
<feGaussianBlur stdDeviation="0.3"/>
<feComposite in2="hardAlpha" operator="arithmetic" k2="-1" k3="1"/>
<feColorMatrix type="matrix" values="0 0 0 0 0.282353 0 0 0 0 0.254902 0 0 0 0 0.313726 0 0 0 1 0"/>
<feBlend mode="normal" in2="shape" result="effect1_innerShadow_706_5568"/>
<feColorMatrix in="SourceAlpha" type="matrix" values="0 0 0 0 0 0 0 0 0 0 0 0 0 0 0 0 0 0 127 0" result="hardAlpha"/>
<feOffset dx="-0.4" dy="0.4"/>
<feGaussianBlur stdDeviation="0.3"/>
<feComposite in2="hardAlpha" operator="arithmetic" k2="-1" k3="1"/>
<feColorMatrix type="matrix" values="0 0 0 0 0.533333 0 0 0 0 0.533333 0 0 0 0 0.533333 0 0 0 1 0"/>
<feBlend mode="normal" in2="effect1_innerShadow_706_5568" result="effect2_innerShadow_706_5568"/>
</filter>
<radialGradient id="paint0_radial_706_5568" cx="0" cy="0" r="1" gradientUnits="userSpaceOnUse" gradientTransform="translate(29.9193 76.594) rotate(-46.212) scale(79.0519)">
<stop offset="0.598" stop-color="#DDDADF"/>
<stop offset="1" stop-color="#BDBABF"/>
</radialGradient>
<linearGradient id="paint1_linear_706_5568" x1="50.0908" y1="21.9609" x2="50.0908" y2="53.1953" gradientUnits="userSpaceOnUse">
<stop stop-color="#F83F4C"/>
<stop offset="1" stop-color="#F74093"/>
</linearGradient>
<linearGradient id="paint2_linear_706_5568" x1="31.2341" y1="60.9565" x2="46.9622" y2="51.8752" gradientUnits="userSpaceOnUse">
<stop stop-color="#32183D"/>
<stop offset="1" stop-color="#2C3A65"/>
</linearGradient>
<linearGradient id="paint3_linear_706_5568" x1="40.9966" y1="58.9283" x2="39.4341" y2="56.2221" gradientUnits="userSpaceOnUse">
<stop stop-color="#2E2840"/>
<stop offset="1" stop-color="#2E2840" stop-opacity="0"/>
</linearGradient>
<radialGradient id="paint4_radial_706_5568" cx="0" cy="0" r="1" gradientUnits="userSpaceOnUse" gradientTransform="translate(31.3448 58.6941) rotate(-30) scale(17.9071 2.54775)">
<stop stop-color="#50375F"/>
<stop offset="1" stop-color="#50375F" stop-opacity="0"/>
</radialGradient>
<linearGradient id="paint5_linear_706_5568" x1="31.2341" y1="60.9565" x2="33.1778" y2="59.8346" gradientUnits="userSpaceOnUse">
<stop stop-color="#3E1846"/>
<stop offset="1" stop-color="#3E1846" stop-opacity="0"/>
</linearGradient>
<linearGradient id="paint6_linear_706_5568" x1="76.5969" y1="12.5789" x2="13.3875" y2="89.2039" gradientUnits="userSpaceOnUse">
<stop stop-color="#6D6B70"/>
<stop offset="1" stop-color="#706C74"/>
</linearGradient>
<radialGradient id="paint7_radial_706_5568" cx="0" cy="0" r="1" gradientUnits="userSpaceOnUse" gradientTransform="translate(53.4692 48.6379) rotate(134.039) scale(10.6388)">
<stop stop-color="#C9C6CC"/>
<stop offset="1" stop-color="#928E95"/>
</radialGradient>
<radialGradient id="paint8_radial_706_5568" cx="0" cy="0" r="1" gradientUnits="userSpaceOnUse" gradientTransform="translate(51.8545 48.4869) rotate(139.399) scale(9.00347)">
<stop offset="0.527" stop-color="#776F7F" stop-opacity="0"/>
<stop offset="1" stop-color="#776F7F"/>
</radialGradient>
</defs>
</svg>
