<svg width="25" height="25" viewBox="0 0 25 25" fill="none" xmlns="http://www.w3.org/2000/svg">
<g id="mynaui:edit">
<path id="Vector" d="M4.86133 21.0602H20.8613M6.52733 13.2472C6.10076 13.6744 5.86122 14.2534 5.86133 14.8572V18.0602H9.08433C9.68833 18.0602 10.2673 17.8202 10.6943 17.3922L20.1943 7.88715C20.6211 7.46001 20.8608 6.88093 20.8608 6.27715C20.8608 5.67337 20.6211 5.09429 20.1943 4.66715L19.2563 3.72715C19.0448 3.5155 18.7936 3.34763 18.5171 3.23312C18.2407 3.11861 17.9444 3.05972 17.6451 3.05981C17.3459 3.05991 17.0496 3.11898 16.7732 3.23366C16.4968 3.34834 16.2457 3.51637 16.0343 3.72815L6.52733 13.2472Z" stroke="#797979" stroke-width="1.5" stroke-linecap="round" stroke-linejoin="round"/>
</g>
</svg>
