<svg width="26" height="25" viewBox="0 0 26 25" fill="none" xmlns="http://www.w3.org/2000/svg">
<g id="fluent:select-all-on-20-regular">
<path id="Vector" d="M15.6681 8.26536C15.7922 8.37449 15.868 8.52842 15.8787 8.69336C15.8895 8.8583 15.8344 9.02076 15.7255 9.1451L11.358 14.1365C11.3018 14.2009 11.233 14.253 11.1558 14.2897C11.0786 14.3264 10.9947 14.3468 10.9093 14.3498C10.8239 14.3527 10.7388 14.338 10.6593 14.3067C10.5798 14.2754 10.5075 14.2281 10.4471 14.1677L7.95136 11.672C7.89335 11.614 7.84734 11.5451 7.81594 11.4693C7.78455 11.3935 7.76839 11.3123 7.76839 11.2303C7.76839 11.1482 7.78455 11.067 7.81594 10.9912C7.84734 10.9154 7.89335 10.8465 7.95136 10.7885C8.00937 10.7305 8.07824 10.6845 8.15403 10.6531C8.22983 10.6217 8.31106 10.6055 8.3931 10.6055C8.47514 10.6055 8.55637 10.6217 8.63217 10.6531C8.70796 10.6845 8.77683 10.7305 8.83484 10.7885L10.8588 12.8125L14.7871 8.32401C14.896 8.19969 15.0499 8.12368 15.2148 8.11269C15.3797 8.10169 15.5436 8.1566 15.6681 8.26536ZM4.02563 7.48671C4.02563 6.49386 4.42004 5.54167 5.12209 4.83962C5.82414 4.13757 6.77633 3.74316 7.76918 3.74316H15.2563C16.2491 3.74316 17.2013 4.13757 17.9033 4.83962C18.6054 5.54167 18.9998 6.49386 18.9998 7.48671V14.9738C18.9998 15.9666 18.6054 16.9188 17.9033 17.6209C17.2013 18.3229 16.2491 18.7173 15.2563 18.7173H7.76918C6.77633 18.7173 5.82414 18.3229 5.12209 17.6209C4.42004 16.9188 4.02563 15.9666 4.02563 14.9738V7.48671ZM7.76918 4.99101C7.10728 4.99101 6.47249 5.25395 6.00445 5.72198C5.53642 6.19002 5.27348 6.82481 5.27348 7.48671V14.9738C5.27348 15.6357 5.53642 16.2705 6.00445 16.7385C6.47249 17.2066 7.10728 17.4695 7.76918 17.4695H15.2563C15.9182 17.4695 16.5529 17.2066 17.021 16.7385C17.489 16.2705 17.752 15.6357 17.752 14.9738V7.48671C17.752 6.82481 17.489 6.19002 17.021 5.72198C16.5529 5.25395 15.9182 4.99101 15.2563 4.99101H7.76918ZM7.46221 19.9652C8.14852 20.7314 9.14306 21.213 10.2524 21.213H15.8677C16.6051 21.213 17.3353 21.0678 18.0166 20.7856C18.6979 20.5034 19.3169 20.0898 19.8383 19.5683C20.3598 19.0469 20.7734 18.4279 21.0556 17.7466C21.3378 17.0653 21.483 16.3351 21.483 15.5977V9.9824C21.483 8.87931 21.0051 7.88602 20.2464 7.2022V13.7259C20.2464 13.8507 20.2414 13.9755 20.2339 14.0991V15.5965C20.2339 16.7548 19.7738 17.8657 18.9547 18.6847C18.1357 19.5038 17.0248 19.9639 15.8665 19.9639H14.077L14.0072 19.9652H7.46221Z" fill="#E8B912"/>
</g>
</svg>
