<svg width="22" height="23" viewBox="0 0 22 23" fill="none" xmlns="http://www.w3.org/2000/svg">
<g id="icon-park-outline:reject">
<g id="Group">
<path id="Vector" d="M8.47102 19.3976H4.06715C3.71711 19.3976 3.3814 19.2586 3.13389 19.0111C2.88637 18.7635 2.74731 18.4278 2.74731 18.0778V4.87941C2.74731 4.52937 2.88637 4.19366 3.13389 3.94614C3.3814 3.69862 3.71711 3.55957 4.06715 3.55957H17.2655C17.6156 3.55957 17.9513 3.69862 18.1988 3.94614C18.4463 4.19366 18.5854 4.52937 18.5854 4.87941V9.29207M12.8824 19.3976H18.1454C18.2621 19.3976 18.374 19.3513 18.4565 19.2688C18.539 19.1863 18.5854 19.0744 18.5854 18.9577V13.6937H8.02667" stroke="#DD2025" stroke-width="1.91977" stroke-linecap="round" stroke-linejoin="round"/>
<path id="Vector_2" d="M10.2268 11.0386L7.58716 13.6783L10.2268 16.3179" stroke="#DD2025" stroke-width="1.91977" stroke-linecap="round" stroke-linejoin="round"/>
</g>
</g>
</svg>
