<svg width="25" height="25" viewBox="0 0 25 25" fill="none" xmlns="http://www.w3.org/2000/svg">
<g id="material-symbols:image-outline">
<path id="Vector" d="M5.20833 21.875C4.63542 21.875 4.14514 21.6712 3.7375 21.2635C3.32986 20.8559 3.12569 20.3653 3.125 19.7917V5.20833C3.125 4.63542 3.32917 4.14514 3.7375 3.7375C4.14583 3.32986 4.63611 3.12569 5.20833 3.125H19.7917C20.3646 3.125 20.8552 3.32917 21.2635 3.7375C21.6719 4.14583 21.8757 4.63611 21.875 5.20833V19.7917C21.875 20.3646 21.6712 20.8552 21.2635 21.2635C20.8559 21.6719 20.3653 21.8757 19.7917 21.875H5.20833ZM5.20833 19.7917H19.7917V5.20833H5.20833V19.7917ZM6.25 17.7083H18.75L14.8438 12.5L11.7188 16.6667L9.375 13.5417L6.25 17.7083Z" fill="#333333"/>
</g>
</svg>
