<svg width="24" height="24" viewBox="0 0 24 24" fill="none" xmlns="http://www.w3.org/2000/svg">
<g id="mdi:account-pending-outline" clip-path="url(#clip0_1785_3208)">
<path id="Vector" d="M15.7149 13.4382H17.1547V16.1451L19.4968 17.4985L18.7769 18.7463L15.7149 16.9802V13.4382ZM16.6748 11.5184C15.4019 11.5184 14.1811 12.0241 13.2811 12.9241C12.381 13.8242 11.8754 15.0449 11.8754 16.3178C11.8754 17.5907 12.381 18.8115 13.2811 19.7115C14.1811 20.6116 15.4019 21.1172 16.6748 21.1172C17.9477 21.1172 19.1684 20.6116 20.0685 19.7115C20.9685 18.8115 21.4742 17.5907 21.4742 16.3178C21.4742 15.0449 20.9685 13.8242 20.0685 12.9241C19.1684 12.0241 17.9477 11.5184 16.6748 11.5184ZM16.6748 9.59865C18.4568 9.59865 20.1659 10.3066 21.4259 11.5667C22.686 12.8267 23.394 14.5358 23.394 16.3178C23.394 18.0999 22.686 19.8089 21.4259 21.069C20.1659 22.3291 18.4568 23.037 16.6748 23.037C13.9967 23.037 11.6834 21.4628 10.5987 19.1975H1.31665V16.3178C1.31665 13.7645 6.43283 12.4783 8.99571 12.4783C9.57164 12.4783 10.282 12.5455 11.0307 12.6703C11.6395 11.7271 12.4752 10.9517 13.4612 10.4151C14.4473 9.87847 15.5522 9.59776 16.6748 9.59865ZM9.95559 16.3178C9.95559 15.6459 10.0516 14.9932 10.234 14.3981C9.83081 14.3309 9.40846 14.3021 8.99571 14.3021C6.14486 14.3021 3.14043 15.7035 3.14043 16.3178V17.3737H10.042C9.98424 17.0247 9.95535 16.6716 9.95559 16.3178ZM8.99571 3.83936C10.014 3.83936 10.9906 4.24388 11.7107 4.96393C12.4307 5.68398 12.8352 6.66058 12.8352 7.67889C12.8352 8.69719 12.4307 9.67379 11.7107 10.3938C10.9906 11.1139 10.014 11.5184 8.99571 11.5184C7.97741 11.5184 7.0008 11.1139 6.28075 10.3938C5.5607 9.67379 5.15618 8.69719 5.15618 7.67889C5.15618 6.66058 5.5607 5.68398 6.28075 4.96393C7.0008 4.24388 7.97741 3.83936 8.99571 3.83936ZM8.99571 5.66313C8.4611 5.66313 7.94839 5.87551 7.57036 6.25353C7.19233 6.63156 6.97996 7.14428 6.97996 7.67889C6.97996 8.2135 7.19233 8.72621 7.57036 9.10424C7.94839 9.48227 8.4611 9.69464 8.99571 9.69464C9.53032 9.69464 10.043 9.48227 10.4211 9.10424C10.7991 8.72621 11.0115 8.2135 11.0115 7.67889C11.0115 7.14428 10.7991 6.63156 10.4211 6.25353C10.043 5.87551 9.53032 5.66313 8.99571 5.66313Z" fill="#F1511B"/>
</g>
<defs>
<clipPath id="clip0_1785_3208">
<rect width="23.0372" height="23.0372" fill="white" transform="translate(0.356445)"/>
</clipPath>
</defs>
</svg>
