<svg width="31" height="31" viewBox="0 0 31 31" fill="none" xmlns="http://www.w3.org/2000/svg">
<g id="mynaui:edit">
<path id="Vector" d="M5.84424 26.31H25.8442M7.92674 16.5437C7.39352 17.0778 7.0941 17.8016 7.09424 18.5562V22.56H11.123C11.878 22.56 12.6017 22.26 13.1355 21.725L25.0105 9.84374C25.5439 9.30981 25.8435 8.58596 25.8435 7.83124C25.8435 7.07652 25.5439 6.35267 25.0105 5.81874L23.838 4.64374C23.5736 4.37918 23.2596 4.16933 22.914 4.0262C22.5684 3.88307 22.198 3.80945 21.824 3.80957C21.4499 3.80969 21.0796 3.88353 20.7341 4.02688C20.3886 4.17022 20.0747 4.38027 19.8105 4.64499L7.92674 16.5437Z" stroke="#797979" stroke-width="1.5" stroke-linecap="round" stroke-linejoin="round"/>
</g>
</svg>
