<svg width="57" height="59" viewBox="0 0 57 59" fill="none" xmlns="http://www.w3.org/2000/svg">
<g id="ic:baseline-apple">
<path id="Vector" d="M40.3946 49.464C38.0823 51.7428 35.5577 51.383 33.1275 50.3035C30.5558 49.2001 28.1963 49.1521 25.483 50.3035C22.0854 51.7907 20.2923 51.359 18.2632 49.464C6.74921 37.3983 8.448 19.0239 21.5192 18.3523C24.7044 18.5202 26.9223 20.1273 28.7862 20.2713C31.5703 19.6956 34.2365 18.0404 37.2093 18.2563C40.7721 18.5442 43.4618 19.9834 45.2314 22.574C37.87 27.0597 39.6159 36.9185 46.3639 39.6771C45.019 43.2752 43.273 46.8493 40.371 49.488L40.3946 49.464ZM28.5503 18.2083C28.1963 12.8591 32.4669 8.44545 37.3745 8.01367C38.0587 14.2024 31.8535 18.808 28.5503 18.2083Z" fill="black"/>
</g>
</svg>
