<svg width="25" height="25" viewBox="0 0 25 25" fill="none" xmlns="http://www.w3.org/2000/svg">
<g id="mingcute:down-line" clip-path="url(#clip0_601_159)">
<g id="Group">
<path id="Vector" fill-rule="evenodd" clip-rule="evenodd" d="M13.2069 16.2071C13.0193 16.3946 12.765 16.4999 12.4999 16.4999C12.2347 16.4999 11.9804 16.3946 11.7929 16.2071L6.13585 10.5501C6.04034 10.4579 5.96416 10.3475 5.91175 10.2255C5.85934 10.1035 5.83176 9.97228 5.8306 9.8395C5.82945 9.70672 5.85475 9.57504 5.90503 9.45215C5.95531 9.32925 6.02957 9.2176 6.12346 9.1237C6.21735 9.02981 6.329 8.95556 6.4519 8.90528C6.5748 8.855 6.70648 8.82969 6.83926 8.83085C6.97204 8.832 7.10325 8.85959 7.22526 8.912C7.34726 8.96441 7.45761 9.04059 7.54985 9.1361L12.4999 14.0861L17.4499 9.1361C17.6385 8.95394 17.8911 8.85315 18.1533 8.85542C18.4155 8.8577 18.6663 8.96287 18.8517 9.14828C19.0371 9.33369 19.1423 9.5845 19.1445 9.8467C19.1468 10.1089 19.046 10.3615 18.8639 10.5501L13.2069 16.2071Z" fill="black"/>
</g>
</g>
<defs>
<clipPath id="clip0_601_159">
<rect width="24" height="24" fill="white" transform="translate(0.5 0.5)"/>
</clipPath>
</defs>
</svg>
