<svg width="25" height="25" viewBox="0 0 25 25" fill="none" xmlns="http://www.w3.org/2000/svg">
<g id="mingcute:down-line" clip-path="url(#clip0_456_8593)">
<g id="Group">
<path id="Vector" fill-rule="evenodd" clip-rule="evenodd" d="M11.7931 8.79315C11.9807 8.60567 12.235 8.50036 12.5001 8.50036C12.7653 8.50036 13.0196 8.60567 13.2071 8.79315L18.8641 14.4501C18.9597 14.5424 19.0358 14.6527 19.0882 14.7747C19.1407 14.8967 19.1682 15.028 19.1694 15.1607C19.1705 15.2935 19.1452 15.4252 19.095 15.5481C19.0447 15.671 18.9704 15.7826 18.8765 15.8765C18.7826 15.9704 18.671 16.0447 18.5481 16.095C18.4252 16.1452 18.2935 16.1705 18.1607 16.1694C18.028 16.1682 17.8967 16.1407 17.7747 16.0882C17.6527 16.0358 17.5424 15.9597 17.4501 15.8641L12.5001 10.9141L7.55014 15.8641C7.36154 16.0463 7.10894 16.1471 6.84674 16.1448C6.58455 16.1425 6.33373 16.0374 6.14833 15.852C5.96292 15.6666 5.85775 15.4157 5.85547 15.1535C5.85319 14.8913 5.95399 14.6387 6.13614 14.4501L11.7931 8.79315Z" fill="black"/>
</g>
</g>
<defs>
<clipPath id="clip0_456_8593">
<rect width="24" height="24" fill="white" transform="matrix(-1 0 0 -1 24.5 24.5)"/>
</clipPath>
</defs>
</svg>
