<svg width="37" height="37" viewBox="0 0 37 37" fill="none" xmlns="http://www.w3.org/2000/svg">
<path id="Vector" d="M18.0191 19.7625C17.7592 18.9766 17.3096 18.2669 16.7101 17.6961C16.0852 17.1885 15.2998 16.9205 14.4949 16.9401C13.65 16.9132 12.825 17.2002 12.1791 17.7457C11.5014 18.2779 10.9933 18.9959 10.7168 19.8121C10.3946 20.7015 10.2244 21.6388 10.2134 22.5848C10.225 23.5131 10.3953 24.4325 10.7168 25.3034C11.0054 26.127 11.5103 26.8573 12.1791 27.4179C12.8418 27.9274 13.6594 28.1934 14.4949 28.1738C15.0846 28.2089 15.6721 28.0762 16.1894 27.7911C16.7068 27.5059 17.1327 27.0801 17.4179 26.5628H17.4149C18.1197 25.3575 18.4688 23.9772 18.4218 22.5818C18.4265 21.6273 18.2908 20.6774 18.0191 19.7625ZM31.3011 0.291754H6.06254C4.64155 0.290508 3.27765 0.850844 2.26795 1.85069C1.25824 2.85054 0.684562 4.20889 0.671875 5.62982L0.671875 30.8699C0.673467 32.299 1.24197 33.669 2.25261 34.6794C3.26326 35.6898 4.63347 36.2579 6.06254 36.2591H31.3011C34.2857 36.2591 36.7128 33.8545 36.7399 30.8699V5.62982C36.7154 4.20427 36.1314 2.84551 35.1139 1.84681C34.0963 0.848109 32.7269 0.289572 31.3011 0.291754ZM16.662 4.80176H19.5339V13.434C18.6834 12.8662 17.6847 12.561 16.662 12.5564V4.80176ZM16.0038 31.7476C14.8365 31.803 13.6704 31.6141 12.5803 31.193C11.9161 30.9145 11.3158 30.5033 10.816 29.9847C10.6281 29.7293 10.4598 29.46 10.3126 29.1792L10.263 28.9778V29.4317C10.1112 32.2014 5.78151 31.698 5.78151 31.698V4.80176H10.5154V15.9858H10.5665C11.1394 15.1265 11.9417 14.4449 12.8824 14.0186C13.8624 13.5713 14.9297 13.348 16.0068 13.3649C17.4442 13.3348 18.8488 13.7966 19.9878 14.6739C21.1234 15.564 21.9939 16.7479 22.505 18.0973C23.0641 19.5265 23.3541 21.0459 23.3601 22.5803C23.3485 24.1148 23.0577 25.6343 22.502 27.0647C21.9775 28.4068 21.1094 29.5874 19.9848 30.4882C18.8413 31.3517 17.4359 31.7963 16.0038 31.7476ZM30.7736 27.0722C30.2491 28.4143 29.381 29.5949 28.2564 30.4957C27.1122 31.3579 25.7073 31.8023 24.2754 31.7551C23.108 31.81 21.9419 31.6206 20.8519 31.199C20.6667 31.1135 20.4852 31.0202 20.3079 30.9195C20.9752 30.3785 21.5658 29.7503 22.0632 29.0485C22.5937 29.2393 23.1543 29.3325 23.7178 29.3265C27.2946 29.3265 28.4517 25.5664 28.4517 22.5878C28.4517 19.6422 27.3682 15.7905 23.7178 15.7905C23.1962 15.7844 22.6773 15.8673 22.1834 16.0354C21.7473 15.3912 21.234 14.8027 20.655 14.2831C20.8159 14.1885 20.9827 14.1013 21.1525 14.0186C22.0469 13.6115 23.0161 13.3946 23.9987 13.3818C24.9812 13.3689 25.9558 13.5604 26.8605 13.944C27.7652 14.3276 28.5803 14.895 29.2542 15.6102C29.9281 16.3255 30.446 17.1729 30.7751 18.0988L30.7736 18.1048C31.3342 19.534 31.6242 21.0549 31.6317 22.5893C31.6202 24.1233 31.3294 25.6424 30.7736 27.0722Z" fill="#00832D"/>
</svg>
