<svg width="37" height="37" viewBox="0 0 37 37" fill="none" xmlns="http://www.w3.org/2000/svg">
<g id="simple-icons:bookmyshow" clip-path="url(#clip0_319_4199)">
<path id="Vector" d="M8.91282 25.1613C8.67888 25.1233 8.46638 25.0025 8.314 24.821C8.16162 24.6394 8.0795 24.4092 8.08257 24.1722V12.0782C8.08216 11.9449 8.10828 11.8129 8.1594 11.6899C8.21053 11.5668 8.28563 11.4552 8.38034 11.3614C8.47506 11.2677 8.58748 11.1938 8.71106 11.1439C8.83464 11.0941 8.9669 11.0693 9.10015 11.0711H17.9436C18.1744 11.0711 18.4052 11.0936 18.63 11.1311C19.5446 11.2838 20.3757 11.7551 20.9764 12.4616C21.577 13.1681 21.9084 14.0643 21.912 14.9916V24.1722C21.9122 24.3061 21.8852 24.4386 21.8326 24.5617C21.7801 24.6849 21.7031 24.7961 21.6063 24.8886C21.489 25.0024 21.3462 25.0866 21.1898 25.134C21.0334 25.1815 20.8679 25.1908 20.7071 25.1613C20.4734 25.1229 20.2613 25.002 20.1092 24.8205C19.9571 24.639 19.8752 24.409 19.8784 24.1722V14.9916C19.8774 14.7392 19.8265 14.4896 19.7287 14.257C19.6308 14.0244 19.488 13.8134 19.3083 13.6362C19.1286 13.4591 18.9157 13.3192 18.6817 13.2246C18.4478 13.1301 18.1974 13.0827 17.9451 13.0853H16.0164V24.1722C16.0151 24.3212 15.9811 24.468 15.9167 24.6024C15.8524 24.7367 15.7593 24.8553 15.6441 24.9497C15.5288 25.044 15.3942 25.1119 15.2498 25.1485C15.1054 25.1851 14.9547 25.1894 14.8085 25.1613C14.5748 25.1229 14.3627 25.002 14.2106 24.8205C14.0585 24.639 13.9766 24.409 13.9797 24.1722V13.0823H10.1177V24.1722C10.1183 24.3059 10.0917 24.4383 10.0397 24.5614C9.98769 24.6845 9.91124 24.7958 9.815 24.8886C9.69755 25.0031 9.55425 25.0877 9.39722 25.1351C9.24019 25.1826 9.07405 25.1916 8.91282 25.1613ZM23.6175 30.432C23.3827 30.3942 23.1695 30.2731 23.0167 30.091C22.864 29.9088 22.782 29.6776 22.7857 29.4399C22.7857 29.1657 22.8906 28.9109 23.0794 28.7236C23.2736 28.5352 23.5343 28.4313 23.8048 28.4343C24.662 28.4343 25.4053 27.8873 25.6511 27.0721L26.7017 23.6147L23.2638 12.261C23.2246 12.1331 23.211 11.9987 23.2239 11.8655C23.2369 11.7324 23.276 11.6031 23.3391 11.4851C23.4022 11.3671 23.488 11.2628 23.5916 11.1781C23.6952 11.0934 23.8145 11.0301 23.9427 10.9917C24.1978 10.9221 24.4698 10.9521 24.7035 11.0757C24.9373 11.1992 25.1153 11.4071 25.2015 11.6571L27.7567 20.1244L30.3403 11.6616C30.4677 11.185 30.9848 10.8823 31.5183 10.9737L31.5902 10.9887C31.7192 11.0268 31.8394 11.0901 31.9439 11.1748C32.0483 11.2596 32.1349 11.3642 32.1987 11.4826C32.2625 11.6011 32.3023 11.731 32.3156 11.8648C32.329 11.9987 32.3157 12.1338 32.2766 12.2625L28.7368 23.9129L27.6188 27.6431C27.3296 28.4988 26.832 29.1956 26.1846 29.6647C25.4951 30.1727 24.6612 30.4468 23.8048 30.447C23.742 30.4474 23.6792 30.4434 23.6175 30.432ZM36.8804 11.0396L34.8527 7.62725L31.2245 9.3312L29.1969 5.9173L25.5702 7.62275L23.541 4.21035L19.9143 5.9158L17.8852 2.5034L14.2585 4.20586L12.2278 0.793457L8.6041 2.49441L0.913086 27.2025L10.2436 30.0199C10.5619 29.0183 11.1915 28.1443 12.0408 27.5252C12.8901 26.9061 13.9148 26.5741 14.9658 26.5775C17.6963 26.5775 19.9113 28.7655 19.9113 31.4631L19.9083 31.5605C19.9308 32.0026 19.8784 32.4507 19.7435 32.8898L29.2314 35.7582L36.8804 11.0366" fill="#DD2025"/>
</g>
<defs>
<clipPath id="clip0_319_4199">
<rect width="35.9673" height="35.9673" fill="white" transform="translate(0.913086 0.291748)"/>
</clipPath>
</defs>
</svg>
