<svg width="25" height="24" viewBox="0 0 25 24" fill="none" xmlns="http://www.w3.org/2000/svg">
<g id="ph:clock-light">
<path id="Vector" d="M12.5 2.4375C10.6087 2.4375 8.75991 2.99833 7.18736 4.04907C5.61482 5.09981 4.38917 6.59327 3.66541 8.34059C2.94164 10.0879 2.75227 12.0106 3.12125 13.8656C3.49022 15.7205 4.40096 17.4244 5.7383 18.7617C7.07564 20.099 8.77951 21.0098 10.6345 21.3788C12.4894 21.7477 14.4121 21.5584 16.1594 20.8346C17.9067 20.1108 19.4002 18.8852 20.4509 17.3126C21.5017 15.7401 22.0625 13.8913 22.0625 12C22.0595 9.46478 21.0511 7.03425 19.2584 5.24158C17.4658 3.44891 15.0352 2.44048 12.5 2.4375ZM12.5 20.4375C10.8312 20.4375 9.19992 19.9426 7.81238 19.0155C6.42484 18.0884 5.34338 16.7706 4.70477 15.2289C4.06616 13.6871 3.89907 11.9906 4.22463 10.3539C4.55019 8.71721 5.35379 7.21379 6.53379 6.03379C7.7138 4.85378 9.21722 4.05019 10.8539 3.72462C12.4906 3.39906 14.1871 3.56615 15.7289 4.20477C17.2706 4.84338 18.5884 5.92484 19.5155 7.31238C20.4427 8.69992 20.9375 10.3312 20.9375 12C20.935 14.237 20.0453 16.3817 18.4635 17.9635C16.8817 19.5453 14.737 20.435 12.5 20.4375ZM18.3125 12C18.3125 12.1492 18.2532 12.2923 18.1478 12.3977C18.0423 12.5032 17.8992 12.5625 17.75 12.5625H12.5C12.3508 12.5625 12.2077 12.5032 12.1023 12.3977C11.9968 12.2923 11.9375 12.1492 11.9375 12V6.75C11.9375 6.60082 11.9968 6.45774 12.1023 6.35225C12.2077 6.24676 12.3508 6.1875 12.5 6.1875C12.6492 6.1875 12.7923 6.24676 12.8978 6.35225C13.0032 6.45774 13.0625 6.60082 13.0625 6.75V11.4375H17.75C17.8992 11.4375 18.0423 11.4968 18.1478 11.6023C18.2532 11.7077 18.3125 11.8508 18.3125 12Z" fill="#3E4DAC"/>
</g>
</svg>
