<svg width="25" height="24" viewBox="0 0 25 24" fill="none" xmlns="http://www.w3.org/2000/svg">
<g id="material-symbols-light:today-outline">
<path id="Vector" d="M9.5 15.615C8.91533 15.615 8.41667 15.4087 8.004 14.996C7.59067 14.5827 7.384 14.084 7.384 13.5C7.384 12.916 7.59067 12.4174 8.004 12.004C8.41733 11.5907 8.916 11.384 9.5 11.384C10.084 11.384 10.5827 11.5907 10.996 12.004C11.4093 12.4174 11.616 12.916 11.616 13.5C11.616 14.084 11.4093 14.5827 10.996 14.996C10.5827 15.4094 10.084 15.616 9.5 15.616V15.615ZM6.115 21C5.655 21 5.271 20.846 4.963 20.538C4.65433 20.2294 4.5 19.845 4.5 19.385V6.61502C4.5 6.15502 4.65433 5.77102 4.963 5.46302C5.271 5.15435 5.655 5.00002 6.115 5.00002H7.885V2.77002H8.962V5.00002H16.115V2.77002H17.115V5.00002H18.885C19.345 5.00002 19.729 5.15435 20.037 5.46302C20.3457 5.77102 20.5 6.15502 20.5 6.61502V19.385C20.5 19.845 20.346 20.229 20.038 20.537C19.7293 20.8457 19.345 21 18.885 21H6.115ZM6.115 20H18.885C19.0383 20 19.1793 19.936 19.308 19.808C19.436 19.6794 19.5 19.5384 19.5 19.385V10.615H5.5V19.385C5.5 19.5384 5.564 19.6794 5.692 19.808C5.82067 19.936 5.96167 20 6.115 20ZM5.5 9.61502H19.5V6.61502C19.5 6.46169 19.436 6.32069 19.308 6.19202C19.1793 6.06402 19.0383 6.00002 18.885 6.00002H6.115C5.96167 6.00002 5.82067 6.06402 5.692 6.19202C5.564 6.32069 5.5 6.46169 5.5 6.61502V9.61502Z" fill="#3E4DAC"/>
</g>
</svg>
