<svg width="35" height="36" viewBox="0 0 35 36" fill="none" xmlns="http://www.w3.org/2000/svg">
<g id="material-symbols-light:task-outline">
<path id="Vector" d="M15.9681 25.0948L23.1985 17.8658L22.1485 16.8158L15.9593 23.0065L12.8414 19.8871L11.8002 20.9283L15.9681 25.0948ZM9.64622 31.125C8.97539 31.125 8.41539 30.9004 7.96622 30.4513C7.51608 30.0011 7.29102 29.4406 7.29102 28.7698V7.23021C7.29102 6.55937 7.51608 5.99938 7.96622 5.55021C8.41539 5.10007 8.97539 4.875 9.64622 4.875H21.1452L27.7077 11.4375V28.7698C27.7077 29.4406 27.4831 30.0006 27.0339 30.4498C26.5838 30.8999 26.0233 31.125 25.3525 31.125H9.64622ZM20.416 12.1667V6.33333H9.64622C9.42261 6.33333 9.21699 6.42667 9.02935 6.61333C8.84268 6.80097 8.74935 7.0066 8.74935 7.23021V28.7698C8.74935 28.9934 8.84268 29.199 9.02935 29.3867C9.21699 29.5733 9.42261 29.6667 9.64622 29.6667H25.3525C25.5761 29.6667 25.7817 29.5733 25.9693 29.3867C26.156 29.199 26.2493 28.9934 26.2493 28.7698V12.1667H20.416Z" fill="black"/>
</g>
</svg>
