<svg width="30" height="26" viewBox="0 0 30 26" fill="none" xmlns="http://www.w3.org/2000/svg">
<g id="logos:google-drive" clip-path="url(#clip0_456_8648)">
<path id="Vector" d="M2.19739 22.2573L3.47922 24.4713C3.74558 24.9375 4.12843 25.3038 4.57792 25.5701C5.86543 23.9359 6.76146 22.6817 7.26647 21.8079C7.77886 20.921 8.40865 19.5337 9.15584 17.6461C7.14215 17.381 5.61621 17.2485 4.57803 17.2485C3.58152 17.2485 2.05558 17.381 0 17.6461C0 18.1622 0.133179 18.6782 0.399536 19.1444L2.19739 22.2573Z" fill="#0066DA"/>
<path id="Vector_2" d="M24.4878 25.5701C24.9374 25.3038 25.3202 24.9375 25.5865 24.4714L26.1192 23.5559L28.6663 19.1444C28.9277 18.6883 29.0654 18.1718 29.0657 17.6461C26.9982 17.381 25.4751 17.2485 24.4962 17.2485C23.4441 17.2485 21.9209 17.381 19.9265 17.6461C20.6648 19.544 21.2863 20.9313 21.791 21.8079C22.3 22.6922 23.1989 23.9462 24.4878 25.5701Z" fill="#EA4335"/>
<path id="Vector_3" d="M14.5328 8.32351C16.0224 6.52452 17.049 5.13721 17.6124 4.16181C18.0662 3.37636 18.5657 2.12223 19.1107 0.399537C18.6612 0.133179 18.1452 0 17.6124 0H11.4531C10.9204 0 10.4044 0.149869 9.95483 0.399537C10.6481 2.37531 11.2364 3.78146 11.7197 4.61789C12.2537 5.54231 13.1914 6.77748 14.5328 8.32351Z" fill="#00832D"/>
<path id="Vector_4" d="M19.9099 17.646H9.15593L4.57812 25.57C5.0275 25.8363 5.54353 25.9695 6.07624 25.9695H22.9896C23.5223 25.9695 24.0384 25.8196 24.4878 25.5699L19.91 17.646H19.9099Z" fill="#2684FC"/>
<path id="Vector_5" d="M14.5329 8.32328L9.95505 0.399414C9.50544 0.665772 9.1226 1.03193 8.85624 1.49811L0.399537 16.1475C0.138075 16.6035 0.000345434 17.12 0 17.6457H9.15586L14.5329 8.32328Z" fill="#00AC47"/>
<path id="Vector_6" d="M24.4379 8.82284L20.2095 1.49811C19.9432 1.03193 19.5603 0.665772 19.1108 0.399414L14.533 8.32339L19.9099 17.6458H29.0491C29.0491 17.1297 28.916 16.6138 28.6496 16.1476L24.4379 8.82284Z" fill="#FFBA00"/>
</g>
<defs>
<clipPath id="clip0_456_8648">
<rect width="29.0655" height="26" fill="white"/>
</clipPath>
</defs>
</svg>
