<svg width="24" height="24" viewBox="0 0 24 24" fill="none" xmlns="http://www.w3.org/2000/svg">
<g id="simple-icons:googledrive">
<path id="Vector" d="M12.01 1.48511C9.928 1.48511 8.256 1.50511 8.267 1.53211C8.277 1.55211 9.975 4.53311 12.041 8.15211L15.801 14.7261H19.561C21.642 14.7261 23.314 14.7061 23.303 14.6791C23.298 14.6591 21.595 11.6781 19.528 8.05911L15.768 1.48511H12.01ZM7.25 3.21511C6.03029 5.31585 4.82028 7.4222 3.62 9.53411L0 15.8681L1.89 19.1661L3.775 22.4631L7.395 16.1281L11.013 9.79811L9.133 6.51111C8.1 4.70411 7.255 3.22111 7.25 3.21511ZM9.509 15.8681L9.306 16.2161C9.192 16.4141 8.346 17.8881 7.426 19.5031C6.864 20.4954 6.29799 21.4854 5.728 22.4731C5.718 22.4991 8.968 22.5151 12.95 22.5151H20.194L21.99 19.3581C22.982 17.6241 23.84 16.1281 23.896 16.0351L24 15.8681H16.751H9.509Z" fill="#439DF7"/>
</g>
</svg>
