<svg width="71" height="71" viewBox="0 0 71 71" fill="none" xmlns="http://www.w3.org/2000/svg">
<g id="simple-icons:flipkart" clip-path="url(#clip0_319_4176)">
<path id="Vector" d="M11.4678 4.37275C11.135 4.37604 10.8053 4.43645 10.4929 4.55134V3.39785C10.4929 1.78472 11.8074 0.470215 13.4206 0.470215H56.3602C57.9733 0.470215 59.2878 1.78472 59.2878 3.39785V4.37275H11.4678ZM62.2155 11.2059H8.54018C6.92706 11.2059 5.61255 12.5204 5.61255 14.1335V67.8058C5.61255 69.419 6.92706 70.7335 8.54018 70.7335H29.9119L33.1265 54.207H26.5686C26.4193 54.207 11.4678 53.5014 11.4678 53.5014L25.0491 52.5441L24.8208 51.4725L19.0299 50.6382L24.5397 50.1756L24.1767 48.8611L15.1742 47.4939C15.1742 47.4939 24.9554 46.4019 25.1047 46.4019H34.5669L35.29 42.5052C36.1361 37.7741 38.0566 34.2873 41.0662 31.6934C44.0905 29.082 47.9286 27.7938 52.5923 27.7938C54.4748 27.7938 55.6751 28.2359 56.1962 29.1493C56.5417 29.6939 56.7847 30.66 57.013 31.6642C57.2297 32.6947 57.4229 33.6286 57.2912 34.3078C57.1243 35.3179 55.9415 35.6692 53.7868 35.6692H53.0461C49.1611 35.6692 46.7985 37.903 46.0051 42.432L45.2937 46.399H49.8023C51.4827 46.399 52.0888 47.5759 51.6233 50.2225C51.1256 52.9774 50.0453 54.204 48.3707 54.204H43.868L40.6593 70.7335H62.2125C63.8257 70.7335 65.1402 69.419 65.1402 67.8058V14.1335C65.1402 13.3575 64.8321 12.6133 64.2837 12.0644C63.7353 11.5154 62.9914 11.2066 62.2155 11.2059ZM60.2627 7.30039C60.262 7.04207 60.159 6.79454 59.9763 6.61188C59.7937 6.42922 59.5461 6.32626 59.2878 6.32549H11.4678C11.2095 6.32626 10.962 6.42922 10.7793 6.61188C10.5967 6.79454 10.4937 7.04207 10.4929 7.30039V9.25312H60.2627V7.30039Z" fill="#E8B912"/>
</g>
<defs>
<clipPath id="clip0_319_4176">
<rect width="70.2633" height="70.2633" fill="white" transform="translate(0.246216 0.470459)"/>
</clipPath>
</defs>
</svg>
