<svg width="137" height="53" viewBox="0 0 137 53" fill="none" xmlns="http://www.w3.org/2000/svg">
<g id="logos:google" clip-path="url(#clip0_319_4169)">
<path id="Vector" d="M132.681 32.3712L136.477 35.2969C135.245 37.3948 132.298 40.9943 127.203 40.9943C120.876 40.9943 116.164 35.3355 116.164 28.1368C116.164 20.4764 120.926 15.2795 126.67 15.2795C132.447 15.2795 135.278 20.5917 136.194 23.4596L136.693 24.9225L121.808 32.044C122.94 34.6233 124.705 35.9321 127.203 35.9321C129.7 35.9321 131.432 34.5078 132.681 32.3712ZM121.009 27.733L130.949 22.9593C130.4 21.362 128.768 20.2265 126.82 20.2265C124.339 20.2265 120.892 22.7672 121.009 27.733Z" fill="#FF302F"/>
<path id="Vector_2" d="M108.987 2.17218H113.782V39.8204H108.987V2.17188V2.17218Z" fill="#20B15A"/>
<path id="Vector_3" d="M101.428 16.2802H106.057V39.1462C106.057 48.6351 101.212 52.5423 95.4841 52.5423C90.0897 52.5423 86.843 48.3465 85.6274 44.9398L89.8732 42.8993C90.6389 44.9972 92.4871 47.4804 95.4841 47.4804C99.1637 47.4804 101.428 44.8434 101.428 39.9162V38.0685H101.262C100.163 39.6082 98.065 40.9939 95.401 40.9939C89.8397 40.9939 84.7446 35.3929 84.7446 28.1753C84.7446 20.9188 89.8397 15.2603 95.401 15.2603C98.0484 15.2603 100.163 16.6268 101.262 18.1281H101.428V16.2805V16.2802ZM101.761 28.1753C101.761 23.6328 99.1472 20.3221 95.8172 20.3221C92.4537 20.3221 89.6233 23.6328 89.6233 28.1753C89.6233 32.6597 92.4537 35.9125 95.8172 35.9125C99.1474 35.932 101.761 32.6597 101.761 28.1753H101.761Z" fill="#3686F7"/>
<path id="Vector_4" d="M58.4212 28.0785C58.4212 35.4889 53.4263 40.9358 47.299 40.9358C41.1719 40.9358 36.1768 35.4698 36.1768 28.0785C36.1768 20.6299 41.1719 15.2021 47.299 15.2021C53.4263 15.2021 58.4212 20.6299 58.4212 28.0785ZM53.5595 28.0785C53.5595 23.4594 50.6622 20.2832 47.299 20.2832C43.9358 20.2832 41.0385 23.4594 41.0385 28.0785C41.0385 32.6594 43.9358 35.8739 47.299 35.8739C50.6624 35.8739 53.5595 32.6594 53.5595 28.0785Z" fill="#FF302F"/>
<path id="Vector_5" d="M82.7135 28.1368C82.7135 35.5472 77.7183 40.994 71.5912 40.994C65.4639 40.994 60.469 35.5468 60.469 28.1368C60.469 20.6881 65.4639 15.2795 71.5912 15.2795C77.7183 15.2795 82.7135 20.6689 82.7135 28.1368ZM77.8348 28.1368C77.8348 23.5177 74.9378 20.3414 71.5744 20.3414C68.2112 20.3414 65.3139 23.5177 65.3139 28.1368C65.3139 32.7176 68.2112 35.9321 71.5744 35.9321C74.9544 35.9321 77.8348 32.6984 77.8348 28.1368Z" fill="#FFBA40"/>
<path id="Vector_6" d="M17.8946 35.3547C10.9181 35.3547 5.45708 28.849 5.45708 20.7842C5.45708 12.7198 10.9181 6.21406 17.8946 6.21406C21.6576 6.21406 24.4047 7.927 26.436 10.1213L29.7829 6.25268C26.9524 3.11539 23.1728 0.728271 17.8946 0.728271C8.33754 0.72858 0.29541 9.73665 0.29541 20.7842C0.29541 31.8324 8.33754 40.8402 17.8946 40.8402C23.0563 40.8402 26.9524 38.877 29.9994 35.22C33.1294 31.6013 34.0951 26.52 34.0951 22.4011C34.0951 21.1114 33.962 19.7835 33.8121 18.8019H17.8946V24.1526H29.2333C28.9003 27.5019 27.9846 29.7923 26.6359 31.3511C25.0042 33.2568 22.4236 35.3547 17.8946 35.3547Z" fill="#3686F7"/>
</g>
<defs>
<clipPath id="clip0_319_4169">
<rect width="136.846" height="51.9072" fill="white" transform="translate(0.0964355 0.648438)"/>
</clipPath>
</defs>
</svg>
