<svg width="25" height="25" viewBox="0 0 25 25" fill="none" xmlns="http://www.w3.org/2000/svg">
<g id="arcticons:magicpin">
<path id="Vector" d="M21.026 10.8698C21.026 17.1219 12.4999 22.6562 12.4999 22.6562C12.4999 22.6562 3.97388 17.1214 3.97388 10.8698C3.97388 6.16146 7.79054 2.34375 12.4999 2.34375C17.2093 2.34375 21.026 6.16146 21.026 10.8698Z" stroke="#9747FF" stroke-linecap="round" stroke-linejoin="round"/>
<path id="Vector_2" d="M12.5 4.54175C15.9948 4.54175 18.8281 7.37508 18.8281 10.8699C18.8281 15.5105 12.5 19.6183 12.5 19.6183C12.5 19.6183 6.17188 15.5105 6.17188 10.8704C6.17188 7.3756 9.00521 4.54175 12.5 4.54175Z" stroke="#9747FF" stroke-linecap="round" stroke-linejoin="round"/>
<path id="Vector_3" d="M16.6303 10.8697C16.6303 13.8983 12.5001 16.5791 12.5001 16.5791C12.5001 16.5791 8.36987 13.8983 8.36987 10.8702C8.36987 9.7748 8.80502 8.72426 9.57958 7.9497C10.3541 7.17514 11.4047 6.73999 12.5001 6.73999C13.5955 6.73999 14.646 7.17514 15.4206 7.9497C16.1951 8.72426 16.6303 9.77428 16.6303 10.8697Z" stroke="#9747FF" stroke-linecap="round" stroke-linejoin="round"/>
</g>
</svg>
