<svg width="35" height="35" viewBox="0 0 35 35" fill="none" xmlns="http://www.w3.org/2000/svg">
<g id="arcticons:magicpin">
<path id="Vector" d="M29.07 15.3043C29.07 23.9393 17.2943 31.5831 17.2943 31.5831C17.2943 31.5831 5.51855 23.9386 5.51855 15.3043C5.51855 8.80137 10.7899 3.52856 17.2943 3.52856C23.7986 3.52856 29.07 8.80137 29.07 15.3043Z" stroke="#FF557A" stroke-width="0.719346" stroke-linecap="round" stroke-linejoin="round"/>
<path id="Vector_2" d="M17.2943 6.56445C22.1211 6.56445 26.0343 10.4777 26.0343 15.3045C26.0343 21.7139 17.2943 27.3874 17.2943 27.3874C17.2943 27.3874 8.5542 21.7139 8.5542 15.3052C8.5542 10.4784 12.4674 6.56445 17.2943 6.56445Z" stroke="#FF557A" stroke-width="0.719346" stroke-linecap="round" stroke-linejoin="round"/>
<path id="Vector_3" d="M22.9987 15.3045C22.9987 19.4875 17.2943 23.19 17.2943 23.19C17.2943 23.19 11.5898 19.4875 11.5898 15.3052C11.5898 13.7923 12.1908 12.3414 13.2606 11.2716C14.3304 10.2018 15.7814 9.60083 17.2943 9.60083C18.8072 9.60083 20.2581 10.2018 21.3279 11.2716C22.3977 12.3414 22.9987 13.7916 22.9987 15.3045Z" stroke="#FF557A" stroke-width="0.719346" stroke-linecap="round" stroke-linejoin="round"/>
</g>
</svg>
