<svg width="35" height="35" viewBox="0 0 35 35" fill="none" xmlns="http://www.w3.org/2000/svg">
<g id="arcticons:myntra">
<path id="Vector" d="M23.2116 18.6475C25.1936 13.5056 25.5322 8.84838 23.9679 8.24538C22.4035 7.64238 19.5286 11.3219 17.5466 16.4639C15.5645 21.6058 15.2259 26.263 16.7903 26.866C18.3546 27.469 21.2295 23.7895 23.2116 18.6475Z" stroke="#F1511B" stroke-width="0.719346" stroke-linecap="round" stroke-linejoin="round"/>
<path id="Vector_2" d="M23.5558 17.7105C23.6646 18.0208 23.7797 18.3332 23.901 18.6478C25.8836 23.7897 28.7581 27.4691 30.3226 26.8663C31.8872 26.2635 31.5477 21.6065 29.5659 16.4646C27.5841 11.3227 24.7089 7.6425 23.1443 8.24532" stroke="#F1511B" stroke-width="0.719346" stroke-linecap="round" stroke-linejoin="round"/>
<path id="Vector_3" d="M10.6554 18.6475C12.6375 13.5056 12.9761 8.84838 11.4117 8.24538C9.8474 7.64238 6.97248 11.3219 4.99043 16.4639C3.00838 21.6058 2.66976 26.263 4.2341 26.866C5.79845 27.469 8.67337 23.7895 10.6554 18.6475Z" stroke="#F1511B" stroke-width="0.719346" stroke-linecap="round" stroke-linejoin="round"/>
<path id="Vector_4" d="M10.9996 17.7105C11.1084 18.0208 11.2235 18.3332 11.3449 18.6478C12.8267 22.4913 14.8064 25.5175 16.3659 26.5491M17.278 17.189C17.1917 16.9487 17.102 16.707 17.009 16.4639C15.0265 11.322 12.152 7.64251 10.5874 8.24533" stroke="#F1511B" stroke-width="0.719346" stroke-linecap="round" stroke-linejoin="round"/>
</g>
</svg>
