<svg width="169" height="45" viewBox="0 0 169 45" fill="none" xmlns="http://www.w3.org/2000/svg">
<g id="logos:netflix" clip-path="url(#clip0_319_4165)">
<path id="Vector" d="M112.595 0.876709V32.4274C116.654 32.6084 120.702 32.8273 124.739 33.0855V39.7748C118.336 39.3655 111.927 39.0549 105.514 38.8431V0.876709H112.595ZM168.863 0.880487L159.643 21.3765L168.861 44.1849L168.851 44.189C166.163 43.8223 163.473 43.4735 160.78 43.1427L155.603 30.3414L150.378 41.9543C147.899 41.6917 145.418 41.444 142.935 41.2113L151.924 21.2392L143.692 0.880802H151.352L155.961 12.274L161.086 0.880487H168.863ZM81.2116 38.5116V0.880173H100.978V7.62968H88.2925V16.3767H97.8905V23.0661H88.2925V38.5103L81.2116 38.5116ZM54.7713 7.62999V0.879858H76.6721V7.62968H69.2619V38.6945C66.8984 38.7543 64.5375 38.8242 62.1816 38.9096V7.62999H54.7713ZM30.5645 40.8542V0.881117H50.2322V7.63031H37.6444V16.7728C40.5363 16.7372 44.6482 16.6972 47.2064 16.7029V23.3929C44.0042 23.3551 40.3895 23.4351 37.6444 23.4612V33.5886C41.8373 33.2718 46.0334 32.9968 50.2322 32.7637V39.4537C43.6687 39.8167 37.1119 40.2838 30.5645 40.8548V40.8542ZM16.6743 25.3904L16.674 0.879858H23.7549V41.4852C21.1664 41.7402 18.5826 42.012 16.0037 42.2988L7.80396 19.7134V43.2661C5.44188 43.5608 3.08165 43.869 0.723389 44.1905V0.880487H7.45258L16.6743 25.3904ZM130.58 40.1782V0.880487H137.661V40.739C135.304 40.5374 132.944 40.3514 130.58 40.1782Z" fill="#DB202C"/>
</g>
<defs>
<clipPath id="clip0_319_4165">
<rect width="168.139" height="43.4517" fill="white" transform="translate(0.723877 0.876465)"/>
</clipPath>
</defs>
</svg>
