<svg width="80" height="81" viewBox="0 0 80 81" fill="none" xmlns="http://www.w3.org/2000/svg">
<g id="simple-icons:paytm" clip-path="url(#clip0_319_4158)">
<path id="Vector" d="M52.7261 27.9408C52.6818 27.9408 52.6375 27.9453 52.594 27.954C50.3479 28.5816 50.8004 31.7461 46.711 32.0169H46.3147C46.257 32.0159 46.1993 32.0214 46.1429 32.0334H46.1396C45.9655 32.0752 45.8107 32.1747 45.7004 32.3156C45.59 32.4565 45.5306 32.6307 45.5318 32.8097V36.4102C45.5318 36.8528 45.8819 37.2062 46.3147 37.2062H48.4452V52.4769C48.4452 52.9129 48.7887 53.263 49.2149 53.263H52.7096C52.9158 53.2604 53.1126 53.1762 53.2568 53.0289C53.401 52.8815 53.481 52.6831 53.4793 52.4769V37.2062H55.4612C55.8906 37.2062 56.2407 36.8528 56.2407 36.4102V32.8097C56.2416 32.6015 56.1602 32.4013 56.0142 32.2528C55.8682 32.1043 55.6694 32.0195 55.4612 32.0169H53.4396V28.6642C53.4405 28.5696 53.4227 28.4758 53.3874 28.3881C53.352 28.3004 53.2997 28.2206 53.2334 28.1531C53.1672 28.0856 53.0883 28.0318 53.0012 27.9948C52.9142 27.9578 52.8207 27.9417 52.7261 27.9408ZM66.6821 31.8055C65.3674 31.8055 64.1651 32.301 63.2402 33.1103V32.7007C63.2285 32.5026 63.1424 32.3162 62.999 32.1789C62.8557 32.0417 62.6657 31.9638 62.4672 31.9608H58.9328C58.7237 31.9643 58.5245 32.0502 58.3785 32.1999C58.2324 32.3497 58.1515 32.551 58.1533 32.7602V52.315C58.1515 52.5241 58.2324 52.7255 58.3785 52.8752C58.5245 53.0249 58.7237 53.1109 58.9328 53.1144H62.4672C62.8636 53.1144 63.184 52.8138 63.2369 52.424V38.3855C63.2234 38.0449 63.3443 37.7127 63.5736 37.4606C63.8029 37.2085 64.1221 37.0566 64.4624 37.0378H65.1098C65.383 37.0591 65.6433 37.1627 65.8563 37.3351C66.01 37.4636 66.1328 37.6251 66.2157 37.8074C66.2986 37.9898 66.3394 38.1885 66.3353 38.3888V51.846L66.3485 52.358C66.3476 52.5671 66.4294 52.7681 66.576 52.9172C66.7226 53.0663 66.9222 53.1514 67.1313 53.154H70.6658C70.8678 53.1508 71.0609 53.0702 71.2053 52.9289C71.3497 52.7875 71.4344 52.5962 71.442 52.3943L71.4387 38.369C71.4387 37.9065 71.6435 37.4903 72.0135 37.2459C72.207 37.1179 72.4297 37.0407 72.6609 37.0213H73.3149C74.0746 37.0873 74.5371 37.6819 74.5371 38.369C74.5536 42.9802 74.5503 47.6179 74.5503 52.3216C74.5494 52.5307 74.6312 52.7317 74.7778 52.8808C74.9245 53.0299 75.1241 53.1151 75.3332 53.1177H78.8676C79.297 53.1177 79.6471 52.7609 79.6471 52.3216V37.3152C79.6471 36.2913 79.5348 35.8552 79.3829 35.4093C79.0308 34.364 78.3607 33.4548 77.4663 32.8092C76.572 32.1636 75.4981 31.8138 74.3951 31.8088H74.3455C73.632 31.8094 72.9262 31.9563 72.2717 32.2403C71.6172 32.5244 71.0279 32.9396 70.5402 33.4604C69.579 32.443 68.228 31.8088 66.7317 31.8088L66.6821 31.8055ZM1.13697 32.0136C1.03547 32.0145 0.935126 32.0353 0.841678 32.075C0.74823 32.1146 0.663507 32.1723 0.592345 32.2447C0.521183 32.3171 0.464977 32.4028 0.426935 32.4969C0.388894 32.591 0.369763 32.6917 0.370634 32.7932V52.3613C0.370634 52.7973 0.68774 53.1474 1.08412 53.1573H4.6846C5.11401 53.1573 5.46745 52.8039 5.46745 52.3646L5.48066 46.8879H8.85982C11.6907 46.8879 13.6594 44.8894 13.6594 41.9959V36.9156C13.6594 34.0187 11.6907 32.0136 8.85982 32.0136H1.13697ZM30.9714 32.0136C30.8677 32.0145 30.7652 32.0358 30.6697 32.0762C30.5743 32.1167 30.4877 32.1756 30.4151 32.2495C30.3424 32.3234 30.2849 32.411 30.2461 32.5071C30.2072 32.6032 30.1876 32.706 30.1885 32.8097V40.9686C30.1885 44.0736 32.3587 46.2801 35.4042 46.2801H37.6339C37.6339 46.2801 37.6867 46.2801 37.7561 46.2933C37.9596 46.3184 38.1467 46.4174 38.2819 46.5715C38.4171 46.7256 38.491 46.924 38.4894 47.129C38.4894 47.5584 38.1723 47.9053 37.766 47.9581L37.7066 47.9713L36.7057 47.9911H32.5404C32.3321 47.9938 32.1334 48.0785 31.9874 48.227C31.8414 48.3755 31.7599 48.5757 31.7608 48.7839V52.3844C31.759 52.5935 31.84 52.7949 31.986 52.9446C32.132 53.0943 32.3313 53.1803 32.5404 53.1837H38.3209C41.3599 53.1837 43.5301 50.9739 43.5301 47.8722V32.8097C43.531 32.6015 43.4495 32.4013 43.3035 32.2528C43.1575 32.1043 42.9588 32.0195 42.7505 32.0169H39.2161C39.0079 32.0195 38.8091 32.1043 38.6631 32.2528C38.5171 32.4013 38.4357 32.6015 38.4366 32.8097C38.42 35.4093 38.4366 37.8471 38.4366 40.2584C38.434 40.4766 38.3462 40.6852 38.1918 40.8395C38.0375 40.9938 37.829 41.0816 37.6108 41.0842H36.1276C35.9066 41.0816 35.6955 40.9915 35.5408 40.8336C35.386 40.6757 35.3001 40.4629 35.3018 40.2419C35.3184 37.7513 35.2853 35.2871 35.2853 32.8097C35.2862 32.6015 35.2048 32.4013 35.0588 32.2528C34.9128 32.1043 34.714 32.0195 34.5058 32.0169L30.9714 32.0136ZM17.7454 32.0334C17.6448 32.0308 17.5446 32.048 17.4506 32.0841C17.3566 32.1202 17.2706 32.1745 17.1976 32.2438C17.1246 32.3131 17.066 32.3962 17.0251 32.4882C16.9842 32.5802 16.9618 32.6793 16.9592 32.78V36.1591C16.9592 36.5951 17.3325 36.9519 17.7916 36.9519H22.459C22.829 37.008 23.1197 37.2822 23.1626 37.7116V38.1741C23.1197 38.5837 22.8323 38.881 22.4789 38.914H20.1666C17.0947 38.914 14.9014 40.995 14.9014 43.9183V48.1101C14.9014 51.0169 16.7842 53.0847 19.8396 53.0847H26.2478C27.3973 53.0847 28.3288 52.1928 28.3288 51.1027V37.4408C28.3288 34.1244 26.6508 32.0334 22.6473 32.0334H17.7454ZM5.48066 37.2261H7.72022C8.17937 37.2261 8.54602 37.6059 8.54602 38.0717V40.8331C8.54733 40.9429 8.52701 41.0518 8.48622 41.1537C8.44542 41.2556 8.38496 41.3485 8.30827 41.427C8.23159 41.5055 8.14019 41.5682 8.03929 41.6114C7.93839 41.6546 7.82997 41.6775 7.72022 41.6788H7.38991C6.75569 41.6854 6.11488 41.6788 5.48066 41.6788V37.2261ZM20.9065 43.7565H22.3765C22.8356 43.7565 23.2089 44.1132 23.2089 44.5492V47.6278C23.2077 47.7135 23.1921 47.7984 23.1626 47.8788C23.1038 48.0394 22.9966 48.1778 22.8558 48.2748C22.7149 48.3719 22.5475 48.4228 22.3765 48.4206H20.9065C20.6913 48.425 20.483 48.3442 20.327 48.1957C20.1711 48.0472 20.0802 47.843 20.0741 47.6278V44.5459C20.0741 44.1099 20.4474 43.7565 20.9065 43.7565Z" fill="#1976D2"/>
</g>
<defs>
<clipPath id="clip0_319_4158">
<rect width="79.2765" height="79.2765" fill="white" transform="translate(0.370605 0.964111)"/>
</clipPath>
</defs>
</svg>
