<svg width="20" height="21" viewBox="0 0 20 21" fill="none" xmlns="http://www.w3.org/2000/svg">
<g id="icon-park-outline:reject">
<g id="Group">
<path id="Vector" d="M7.92083 18H3.75C3.41848 18 3.10054 17.8683 2.86612 17.6339C2.6317 17.3995 2.5 17.0815 2.5 16.75V4.25C2.5 3.91848 2.6317 3.60054 2.86612 3.36612C3.10054 3.1317 3.41848 3 3.75 3H16.25C16.5815 3 16.8995 3.1317 17.1339 3.36612C17.3683 3.60054 17.5 3.91848 17.5 4.25V8.42917M12.0988 18H17.0833C17.1938 18 17.2998 17.9561 17.378 17.878C17.4561 17.7998 17.5 17.6938 17.5 17.5833V12.5979H7.5" stroke="#3F3F3F" stroke-width="2" stroke-linecap="round" stroke-linejoin="round"/>
<path id="Vector_2" d="M9.5835 10.0833L7.0835 12.5833L9.5835 15.0833" stroke="#3F3F3F" stroke-width="2" stroke-linecap="round" stroke-linejoin="round"/>
</g>
</g>
</svg>
