<svg width="31" height="31" viewBox="0 0 31 31" fill="none" xmlns="http://www.w3.org/2000/svg">
<g id="pajamas:review-list" clip-path="url(#clip0_573_427)">
<path id="Vector" fill-rule="evenodd" clip-rule="evenodd" d="M17.375 5.18756C17.375 5.68484 17.1775 6.16175 16.8258 6.51339C16.4742 6.86502 15.9973 7.06256 15.5 7.06256C15.0027 7.06256 14.5258 6.86502 14.1742 6.51339C13.8225 6.16175 13.625 5.68484 13.625 5.18756C13.625 4.69028 13.8225 4.21337 14.1742 3.86174C14.5258 3.5101 15.0027 3.31256 15.5 3.31256C15.9973 3.31256 16.4742 3.5101 16.8258 3.86174C17.1775 4.21337 17.375 4.69028 17.375 5.18756ZM20.0938 4.25006C19.8786 3.19041 19.3037 2.23774 18.4665 1.55346C17.6293 0.869172 16.5813 0.495361 15.5 0.495361C14.4187 0.495361 13.3707 0.869172 12.5335 1.55346C11.6963 2.23774 11.1214 3.19041 10.9063 4.25006H6.125C5.62772 4.25006 5.15081 4.4476 4.79917 4.79923C4.44754 5.15087 4.25 5.62778 4.25 6.12506V28.6251C4.25 29.1223 4.44754 29.5993 4.79917 29.9509C5.15081 30.3025 5.62772 30.5001 6.125 30.5001H24.875C25.3723 30.5001 25.8492 30.3025 26.2008 29.9509C26.5525 29.5993 26.75 29.1223 26.75 28.6251V6.12506C26.75 5.62778 26.5525 5.15087 26.2008 4.79923C25.8492 4.4476 25.3723 4.25006 24.875 4.25006H20.0938ZM15.5 9.87506H10.8125V7.06256H7.0625V27.6876H23.9375V7.06256H20.1875V9.87506H15.5ZM9.875 15.0313C9.875 14.6583 10.0232 14.3007 10.2869 14.0369C10.5506 13.7732 10.9083 13.6251 11.2812 13.6251H19.7188C20.0917 13.6251 20.4494 13.7732 20.7131 14.0369C20.9768 14.3007 21.125 14.6583 21.125 15.0313C21.125 15.4043 20.9768 15.762 20.7131 16.0257C20.4494 16.2894 20.0917 16.4376 19.7188 16.4376H11.2812C10.9083 16.4376 10.5506 16.2894 10.2869 16.0257C10.0232 15.762 9.875 15.4043 9.875 15.0313ZM11.2812 18.3126C10.9083 18.3126 10.5506 18.4607 10.2869 18.7244C10.0232 18.9882 9.875 19.3458 9.875 19.7188C9.875 20.0918 10.0232 20.4495 10.2869 20.7132C10.5506 20.9769 10.9083 21.1251 11.2812 21.1251H19.7188C20.0917 21.1251 20.4494 20.9769 20.7131 20.7132C20.9768 20.4495 21.125 20.0918 21.125 19.7188C21.125 19.3458 20.9768 18.9882 20.7131 18.7244C20.4494 18.4607 20.0917 18.3126 19.7188 18.3126H11.2812Z" fill="#4555BA"/>
</g>
<defs>
<clipPath id="clip0_573_427">
<rect width="30" height="30" fill="white" transform="translate(0.5 0.5)"/>
</clipPath>
</defs>
</svg>
