<svg width="29" height="29" viewBox="0 0 29 29" fill="none" xmlns="http://www.w3.org/2000/svg">
<g id="material-symbols-light:upload">
<path id="Vector" d="M13.547 18.7765V8.72545L10.8396 11.4328L10.0169 10.5974L14.1279 6.48633L18.239 10.5974L17.4175 11.434L14.7089 8.72545V18.7765H13.547ZM7.87073 22.7539C7.33622 22.7539 6.89002 22.575 6.53213 22.2171C6.17347 21.8584 5.99414 21.4119 5.99414 20.8774V18.0619H7.15611V20.8774C7.15611 21.0555 7.23048 21.2194 7.37921 21.3689C7.52872 21.5176 7.69256 21.592 7.87073 21.592H20.3852C20.5633 21.592 20.7272 21.5176 20.8767 21.3689C21.0254 21.2194 21.0998 21.0555 21.0998 20.8774V18.0619H22.2617V20.8774C22.2617 21.4119 22.0828 21.8581 21.7249 22.2159C21.3663 22.5746 20.9197 22.7539 20.3852 22.7539H7.87073Z" fill="#4555BA"/>
</g>
</svg>
