<svg width="20" height="21" viewBox="0 0 20 21" fill="none" xmlns="http://www.w3.org/2000/svg">
<g id="fluent:select-all-on-20-regular">
<path id="Vector" d="M2 4.5C2 3.96957 2.21071 3.46086 2.58579 3.08579C2.96086 2.71071 3.46957 2.5 4 2.5H14C14.5304 2.5 15.0391 2.71071 15.4142 3.08579C15.7893 3.46086 16 3.96957 16 4.5V14.5C16 15.0304 15.7893 15.5391 15.4142 15.9142C15.0391 16.2893 14.5304 16.5 14 16.5H4C3.46957 16.5 2.96086 16.2893 2.58579 15.9142C2.21071 15.5391 2 15.0304 2 14.5V4.5ZM4 3.5C3.73478 3.5 3.48043 3.60536 3.29289 3.79289C3.10536 3.98043 3 4.23478 3 4.5V14.5C3 14.7652 3.10536 15.0196 3.29289 15.2071C3.48043 15.3946 3.73478 15.5 4 15.5H14C14.2652 15.5 14.5196 15.3946 14.7071 15.2071C14.8946 15.0196 15 14.7652 15 14.5V4.5C15 4.23478 14.8946 3.98043 14.7071 3.79289C14.5196 3.60536 14.2652 3.5 14 3.5H4ZM6 18.5C5.64894 18.5 5.30406 18.4076 5.00003 18.232C4.696 18.0565 4.44353 17.804 4.268 17.5H14C14.7956 17.5 15.5587 17.1839 16.1213 16.6213C16.6839 16.0587 17 15.2956 17 14.5V4.768C17.304 4.94353 17.5565 5.196 17.732 5.50003C17.9076 5.80406 18 6.14894 18 6.5V14.5C18 15.5609 17.5786 16.5783 16.8284 17.3284C16.0783 18.0786 15.0609 18.5 14 18.5H6ZM12.376 7.83C12.4193 7.78062 12.4525 7.72319 12.4737 7.66099C12.4948 7.59879 12.5035 7.53303 12.4992 7.46747C12.4949 7.40192 12.4778 7.33784 12.4488 7.27891C12.4197 7.21997 12.3794 7.16734 12.33 7.124C12.2806 7.08066 12.2232 7.04748 12.161 7.02634C12.0988 7.00519 12.033 6.99651 11.9675 7.00078C11.9019 7.00505 11.8378 7.0222 11.7789 7.05123C11.72 7.08027 11.6673 7.12062 11.624 7.17L8.476 10.768L6.854 9.146C6.80751 9.09951 6.75232 9.06264 6.69158 9.03748C6.63084 9.01232 6.56574 8.99937 6.5 8.99937C6.43426 8.99937 6.36916 9.01232 6.30842 9.03748C6.24768 9.06264 6.19249 9.09951 6.146 9.146C6.09951 9.19249 6.06264 9.24768 6.03748 9.30842C6.01232 9.36916 5.99937 9.43426 5.99937 9.5C5.99937 9.56574 6.01232 9.63084 6.03748 9.69158C6.06264 9.75232 6.09951 9.80751 6.146 9.854L8.146 11.854C8.19446 11.9024 8.25234 11.9403 8.31606 11.9654C8.37978 11.9905 8.44798 12.0023 8.51643 11.9999C8.58487 11.9976 8.6521 11.9812 8.71396 11.9518C8.77581 11.9224 8.83097 11.8806 8.876 11.829L12.376 7.83Z" fill="#3F3F3F"/>
</g>
</svg>
