<svg width="24" height="25" viewBox="0 0 24 25" fill="none" xmlns="http://www.w3.org/2000/svg">
<g id="carbon:task-asset-view">
<path id="Vector" d="M16.875 20C16.3558 20 15.8483 19.846 15.4166 19.5576C14.985 19.2692 14.6485 18.8592 14.4498 18.3795C14.2511 17.8999 14.1992 17.3721 14.3004 16.8629C14.4017 16.3537 14.6517 15.886 15.0188 15.5188C15.386 15.1517 15.8537 14.9017 16.3629 14.8004C16.8721 14.6992 17.3999 14.7511 17.8795 14.9498C18.3592 15.1485 18.7692 15.485 19.0576 15.9166C19.346 16.3483 19.5 16.8558 19.5 17.375C19.4992 18.071 19.2224 18.7382 18.7303 19.2303C18.2382 19.7224 17.571 19.9992 16.875 20ZM16.875 16.25C16.6525 16.25 16.435 16.316 16.25 16.4396C16.065 16.5632 15.9208 16.7389 15.8356 16.9445C15.7505 17.15 15.7282 17.3762 15.7716 17.5945C15.815 17.8127 15.9222 18.0132 16.0795 18.1705C16.2368 18.3278 16.4373 18.435 16.6555 18.4784C16.8738 18.5218 17.1 18.4995 17.3055 18.4144C17.5111 18.3292 17.6868 18.185 17.8104 18C17.934 17.815 18 17.5975 18 17.375C17.9996 17.0768 17.881 16.7908 17.6701 16.5799C17.4592 16.3691 17.1732 16.2504 16.875 16.25Z" fill="#3F3F3F"/>
<path id="Vector_2" d="M16.875 23.75C15.6141 23.75 14.3816 23.3761 13.3332 22.6756C12.2849 21.9751 11.4678 20.9795 10.9853 19.8146C10.5028 18.6497 10.3765 17.3679 10.6225 16.1313C10.8685 14.8947 11.4756 13.7588 12.3672 12.8672C13.2588 11.9756 14.3947 11.3685 15.6313 11.1225C16.8679 10.8765 18.1497 11.0028 19.3146 11.4853C20.4795 11.9678 21.4751 12.7849 22.1756 13.8332C22.8761 14.8816 23.25 16.1141 23.25 17.375C23.248 19.0651 22.5757 20.6855 21.3806 21.8806C20.1855 23.0757 18.5651 23.748 16.875 23.75ZM16.875 12.5C15.9108 12.5 14.9683 12.7859 14.1666 13.3216C13.3649 13.8573 12.7401 14.6186 12.3711 15.5094C12.0021 16.4002 11.9056 17.3804 12.0937 18.3261C12.2818 19.2717 12.7461 20.1404 13.4279 20.8221C14.1096 21.5039 14.9783 21.9682 15.9239 22.1563C16.8696 22.3444 17.8498 22.2479 18.7406 21.8789C19.6314 21.5099 20.3927 20.8851 20.9284 20.0834C21.4641 19.2817 21.75 18.3392 21.75 17.375C21.7486 16.0825 21.2346 14.8433 20.3206 13.9294C19.4067 13.0155 18.1675 12.5014 16.875 12.5Z" fill="#3F3F3F"/>
<path id="Vector_3" d="M18.75 4.25H16.5V3.5C16.4988 3.10254 16.3404 2.7217 16.0593 2.44065C15.7783 2.1596 15.3975 2.00119 15 2H9C8.60254 2.00119 8.2217 2.1596 7.94065 2.44065C7.6596 2.7217 7.50119 3.10254 7.5 3.5V4.25H5.25C4.85254 4.25119 4.4717 4.4096 4.19065 4.69065C3.9096 4.9717 3.75119 5.35254 3.75 5.75V21.5C3.75119 21.8975 3.9096 22.2783 4.19065 22.5593C4.4717 22.8404 4.85254 22.9988 5.25 23H9V21.5H5.25V5.75H7.5V8H16.5V5.75H18.75V9.5H20.25V5.75C20.2488 5.35254 20.0904 4.9717 19.8093 4.69065C19.5283 4.4096 19.1475 4.25119 18.75 4.25ZM15 6.5H9V3.5H15V6.5Z" fill="#3F3F3F"/>
</g>
</svg>
