<svg width="37" height="37" viewBox="0 0 37 37" fill="none" xmlns="http://www.w3.org/2000/svg">
<g id="simple-icons:swiggy" clip-path="url(#clip0_319_4195)">
<path id="Vector" d="M18.814 36.2591C18.2505 35.6431 15.7043 32.3866 12.8943 27.9971C12.0746 26.6243 11.5441 25.5543 11.646 25.2786C11.9127 24.5592 16.6739 24.1651 18.1396 24.817C18.5862 25.0148 18.5742 25.2771 18.5742 25.4299C18.5742 26.0893 18.5412 27.8562 18.5412 27.8562C18.5414 27.9431 18.5587 28.0291 18.5921 28.1093C18.6256 28.1895 18.6745 28.2623 18.7361 28.3236C18.7976 28.3849 18.8707 28.4335 18.951 28.4666C19.0314 28.4996 19.1175 28.5166 19.2043 28.5164C19.2912 28.5162 19.3772 28.4989 19.4574 28.4654C19.5376 28.432 19.6105 28.3831 19.6718 28.3215C19.7331 28.2599 19.7816 28.1869 19.8147 28.1065C19.8478 28.0262 19.8647 27.9401 19.8645 27.8532L19.857 23.4487C19.857 23.0666 19.4404 22.9706 19.361 22.9557C18.5952 22.9527 17.0411 22.9467 15.3731 22.9467C11.6909 22.9467 10.8682 23.098 10.2432 22.6889C8.88848 21.8032 6.67199 15.8296 6.62104 12.4697C6.5476 7.731 9.35605 3.62622 13.311 1.59257C15.0143 0.735241 16.8951 0.289686 18.802 0.291755C25.0618 0.291755 30.2171 5.01696 30.9035 11.0954L30.905 11.1119C31.0308 12.5821 22.9307 12.8938 21.3287 12.4667C21.0829 12.4008 21.0199 12.149 21.0199 12.0411L21.011 7.77895C21.0106 7.60327 20.9404 7.43495 20.8159 7.311C20.6914 7.18706 20.5227 7.11765 20.3471 7.11805C20.1714 7.11845 20.0031 7.18862 19.8791 7.31312C19.7552 7.43763 19.6858 7.60627 19.6862 7.78195L19.6996 13.5757C19.7011 13.6897 19.7418 13.7996 19.815 13.887C19.8882 13.9744 19.9893 14.0338 20.1013 14.0552L25.1277 14.0537C27.8103 14.0537 28.9373 14.364 29.6866 14.9349C30.1856 15.3156 30.3774 16.0424 30.2096 16.9881C28.7035 25.4014 19.1721 35.8245 18.814 36.2591Z" fill="#FF6B00"/>
</g>
<defs>
<clipPath id="clip0_319_4195">
<rect width="35.9673" height="35.9673" fill="white" transform="translate(0.779297 0.291748)"/>
</clipPath>
</defs>
</svg>
