<svg width="24" height="24" viewBox="0 0 24 24" fill="none" xmlns="http://www.w3.org/2000/svg">
<g id="material-symbols-light:task-alt-rounded">
<path id="Vector" d="M12.003 21C10.759 21 9.589 20.764 8.493 20.292C7.39767 19.8193 6.44467 19.178 5.634 18.368C4.82333 17.5587 4.18167 16.6067 3.709 15.512C3.23633 14.4173 3 13.2477 3 12.003C3 10.759 3.23633 9.589 3.709 8.493C4.18167 7.397 4.823 6.444 5.633 5.634C6.443 4.82333 7.39533 4.18167 8.49 3.709C9.58533 3.23633 10.7553 3 12 3C12.864 3 13.6977 3.12067 14.501 3.362C15.3043 3.60267 16.0687 3.94933 16.794 4.402C16.9287 4.484 17.0177 4.594 17.061 4.732C17.1037 4.87067 17.0803 4.999 16.991 5.117C16.901 5.235 16.7827 5.305 16.636 5.327C16.4893 5.349 16.3527 5.319 16.226 5.237C15.5907 4.833 14.915 4.52567 14.199 4.315C13.483 4.105 12.75 4 12 4C9.78333 4 7.89567 4.77933 6.337 6.338C4.77833 7.89667 3.99933 9.784 4 12C4 14.2167 4.77933 16.1043 6.338 17.663C7.89667 19.2217 9.784 20.0007 12 20C14.2167 20 16.1043 19.221 17.663 17.663C19.2217 16.105 20.0007 14.2173 20 12C20 11.7467 19.9893 11.501 19.968 11.263C19.9473 11.025 19.9093 10.7817 19.854 10.533C19.8207 10.3903 19.8397 10.2537 19.911 10.123C19.9817 9.99367 20.0893 9.913 20.234 9.881C20.37 9.849 20.494 9.874 20.606 9.956C20.718 10.038 20.7903 10.148 20.823 10.286C20.8823 10.558 20.9267 10.8357 20.956 11.119C20.9853 11.4023 21 11.696 21 12C21 13.2453 20.764 14.4153 20.292 15.51C19.8193 16.6053 19.178 17.558 18.368 18.368C17.5587 19.178 16.6067 19.819 15.512 20.291C14.4173 20.7637 13.2477 21 12.003 21ZM10.562 14.492L19.938 5.11C20.0313 5.01667 20.1453 4.96567 20.28 4.957C20.4133 4.94833 20.5367 5.00067 20.65 5.114C20.754 5.21733 20.806 5.334 20.806 5.464C20.806 5.59333 20.7527 5.711 20.646 5.817L11.126 15.342C10.9653 15.504 10.7773 15.585 10.562 15.585C10.346 15.585 10.1573 15.504 9.996 15.342L7.358 12.704C7.26467 12.6107 7.21467 12.496 7.208 12.36C7.20133 12.224 7.25133 12.1027 7.358 11.996C7.46467 11.8893 7.58267 11.836 7.712 11.836C7.84133 11.836 7.959 11.8893 8.065 11.996L10.562 14.492Z" fill="black"/>
</g>
</svg>
