<svg width="24" height="25" viewBox="0 0 24 25" fill="none" xmlns="http://www.w3.org/2000/svg">
<g id="ic:round-task-alt">
<path id="Vector" d="M21.29 6.38996L11.29 16.39C11.1975 16.4827 11.0876 16.5562 10.9666 16.6064C10.8457 16.6566 10.716 16.6824 10.585 16.6824C10.454 16.6824 10.3244 16.6566 10.2034 16.6064C10.0824 16.5562 9.97252 16.4827 9.88 16.39L7.05 13.56C6.95742 13.4674 6.88398 13.3575 6.83388 13.2365C6.78377 13.1155 6.75798 12.9859 6.75798 12.855C6.75798 12.724 6.78377 12.5944 6.83388 12.4734C6.88398 12.3525 6.95742 12.2425 7.05 12.15C7.14258 12.0574 7.2525 11.9839 7.37346 11.9338C7.49442 11.8837 7.62407 11.8579 7.755 11.8579C7.88593 11.8579 8.01558 11.8837 8.13655 11.9338C8.25751 11.9839 8.36742 12.0574 8.46 12.15L10.58 14.27L19.87 4.97996C19.9625 4.88725 20.0724 4.81371 20.1934 4.76353C20.3144 4.71334 20.444 4.68751 20.575 4.68751C20.706 4.68751 20.8357 4.71334 20.9566 4.76353C21.0776 4.81371 21.1875 4.88725 21.28 4.97996C21.68 5.36996 21.68 5.99996 21.29 6.38996ZM15.77 3.23996C14.08 2.54996 12.16 2.30996 10.16 2.66996C6.09 3.39996 2.84 6.67996 2.15 10.75C1.87623 12.3006 1.97217 13.894 2.43004 15.4006C2.88791 16.9072 3.69478 18.2845 4.78508 19.4206C5.87538 20.5567 7.21835 21.4195 8.70484 21.9389C10.1913 22.4584 11.7794 22.6197 13.34 22.41C17.3 21.9 20.62 18.95 21.66 15.1C22.06 13.63 22.1 12.21 21.87 10.88C21.74 10.08 20.75 9.76996 20.17 10.34C19.94 10.57 19.84 10.91 19.9 11.23C20.12 12.56 20.02 13.98 19.38 15.49C18.22 18.2 15.7 20.19 12.77 20.46C7.67 20.93 3.44 16.61 4.07 11.48C4.5 7.93996 7.35 5.05996 10.88 4.56996C12.61 4.32996 14.25 4.65996 15.65 5.37996C15.886 5.50328 16.1614 5.52779 16.4155 5.44809C16.6696 5.36839 16.8817 5.191 17.005 4.95496C17.1283 4.71892 17.1528 4.44355 17.0731 4.18944C16.9934 3.93533 16.816 3.72328 16.58 3.59996C16.31 3.47996 16.04 3.34996 15.77 3.23996Z" fill="#3F3F3F"/>
</g>
</svg>
