<svg width="25" height="25" viewBox="0 0 25 25" fill="none" xmlns="http://www.w3.org/2000/svg">
<g id="ic:round-done-all">
<path id="Vector" d="M17.5545 6.48982C17.462 6.39712 17.3521 6.32357 17.2312 6.27339C17.1102 6.2232 16.9805 6.19737 16.8495 6.19737C16.7186 6.19737 16.5889 6.2232 16.4679 6.27339C16.3469 6.32357 16.237 6.39712 16.1445 6.48982L10.5045 12.1298L11.9145 13.5398L17.5545 7.88982C17.9345 7.50982 17.9345 6.86982 17.5545 6.48982ZM21.7945 6.47982L11.9145 16.3598L8.43453 12.8898C8.24755 12.7028 7.99396 12.5978 7.72953 12.5978C7.46511 12.5978 7.21151 12.7028 7.02453 12.8898C6.83755 13.0768 6.73251 13.3304 6.73251 13.5948C6.73251 13.8592 6.83755 14.1128 7.02453 14.2998L11.2045 18.4798C11.5945 18.8698 12.2245 18.8698 12.6145 18.4798L23.2045 7.89982C23.2972 7.8073 23.3708 7.69742 23.421 7.57644C23.4711 7.45547 23.497 7.32579 23.497 7.19482C23.497 7.06385 23.4711 6.93417 23.421 6.81319C23.3708 6.69222 23.2972 6.58233 23.2045 6.48982H23.1945C23.1043 6.39542 22.996 6.32011 22.8762 6.26835C22.7563 6.21659 22.6272 6.18943 22.4966 6.1885C22.3661 6.18757 22.2366 6.21287 22.116 6.26292C21.9954 6.31296 21.8861 6.38672 21.7945 6.47982ZM1.37453 14.3098L5.55453 18.4898C5.94453 18.8798 6.57453 18.8798 6.96453 18.4898L7.66453 17.7898L2.78453 12.8898C2.69202 12.7971 2.58213 12.7236 2.46116 12.6734C2.34018 12.6232 2.2105 12.5974 2.07953 12.5974C1.94856 12.5974 1.81888 12.6232 1.69791 12.6734C1.57693 12.7236 1.46704 12.7971 1.37453 12.8898C0.984531 13.2798 0.984531 13.9198 1.37453 14.3098Z" fill="#20B15A"/>
</g>
</svg>
