<svg width="24" height="25" viewBox="0 0 24 25" fill="none" xmlns="http://www.w3.org/2000/svg">
<g id="mdi:account-pending-outline" clip-path="url(#clip0_1026_12693)">
<path id="Vector" d="M16 14.8789H17.5V17.6989L19.94 19.1089L19.19 20.4089L16 18.5689V14.8789ZM17 12.8789C15.6739 12.8789 14.4021 13.4057 13.4645 14.3434C12.5268 15.2811 12 16.5528 12 17.8789C12 19.205 12.5268 20.4768 13.4645 21.4144C14.4021 22.3521 15.6739 22.8789 17 22.8789C18.3261 22.8789 19.5979 22.3521 20.5355 21.4144C21.4732 20.4768 22 19.205 22 17.8789C22 16.5528 21.4732 15.2811 20.5355 14.3434C19.5979 13.4057 18.3261 12.8789 17 12.8789ZM17 10.8789C18.8565 10.8789 20.637 11.6164 21.9497 12.9292C23.2625 14.2419 24 16.0224 24 17.8789C24 19.7354 23.2625 21.5159 21.9497 22.8287C20.637 24.1414 18.8565 24.8789 17 24.8789C14.21 24.8789 11.8 23.2389 10.67 20.8789H1V17.8789C1 15.2189 6.33 13.8789 9 13.8789C9.6 13.8789 10.34 13.9489 11.12 14.0789C11.7543 13.0963 12.6249 12.2885 13.6521 11.7295C14.6794 11.1704 15.8305 10.878 17 10.8789ZM10 17.8789C10 17.1789 10.1 16.4989 10.29 15.8789C9.87 15.8089 9.43 15.7789 9 15.7789C6.03 15.7789 2.9 17.2389 2.9 17.8789V18.9789H10.09C10.0298 18.6153 9.99974 18.2474 10 17.8789ZM9 4.87891C10.0609 4.87891 11.0783 5.30033 11.8284 6.05048C12.5786 6.80062 13 7.81804 13 8.87891C13 9.93977 12.5786 10.9572 11.8284 11.7073C11.0783 12.4575 10.0609 12.8789 9 12.8789C7.93913 12.8789 6.92172 12.4575 6.17157 11.7073C5.42143 10.9572 5 9.93977 5 8.87891C5 7.81804 5.42143 6.80062 6.17157 6.05048C6.92172 5.30033 7.93913 4.87891 9 4.87891ZM9 6.77891C8.44305 6.77891 7.9089 7.00016 7.51508 7.39398C7.12125 7.78781 6.9 8.32195 6.9 8.87891C6.9 9.43586 7.12125 9.97 7.51508 10.3638C7.9089 10.7577 8.44305 10.9789 9 10.9789C9.55695 10.9789 10.0911 10.7577 10.4849 10.3638C10.8788 9.97 11.1 9.43586 11.1 8.87891C11.1 8.32195 10.8788 7.78781 10.4849 7.39398C10.0911 7.00016 9.55695 6.77891 9 6.77891Z" fill="#F1511B"/>
</g>
<defs>
<clipPath id="clip0_1026_12693">
<rect width="24" height="24" fill="white" transform="translate(0 0.878906)"/>
</clipPath>
</defs>
</svg>
